<svg width="1440" height="197" viewBox="0 0 1440 197" fill="none" xmlns="http://www.w3.org/2000/svg">
<path d="M134.4 152.2C133.525 152.2 132.683 152.115 131.872 151.944C131.083 151.752 130.325 151.485 129.6 151.144V157H128V134.6H136.8C138.016 134.6 139.157 134.835 140.224 135.304C141.291 135.773 142.219 136.413 143.008 137.224C143.819 138.013 144.448 138.941 144.896 140.008C145.365 141.053 145.6 142.184 145.6 143.4C145.6 144.616 145.365 145.757 144.896 146.824C144.448 147.891 143.819 148.829 143.008 149.64C142.219 150.429 141.291 151.059 140.224 151.528C139.157 151.976 138.016 152.2 136.8 152.2H134.4ZM144 143.4C144 142.419 143.808 141.491 143.424 140.616C143.061 139.741 142.549 138.984 141.888 138.344C141.227 137.683 140.459 137.16 139.584 136.776C138.709 136.392 137.781 136.2 136.8 136.2H129.6V149.352C130.304 149.757 131.051 150.067 131.84 150.28C132.651 150.493 133.504 150.6 134.4 150.6H136.8C137.781 150.6 138.709 150.419 139.584 150.056C140.459 149.672 141.227 149.149 141.888 148.488C142.549 147.827 143.061 147.069 143.424 146.216C143.808 145.341 144 144.403 144 143.4ZM155.988 157.032C154.772 157.032 153.63 156.808 152.564 156.36C151.497 155.891 150.558 155.261 149.748 154.472C148.958 153.661 148.329 152.723 147.86 151.656C147.412 150.589 147.188 149.448 147.188 148.232C147.188 147.016 147.412 145.875 147.86 144.808C148.329 143.741 148.958 142.813 149.748 142.024C150.558 141.213 151.497 140.584 152.564 140.136C153.63 139.667 154.772 139.432 155.988 139.432C157.481 139.432 158.846 139.773 160.084 140.456C161.342 141.139 162.377 142.045 163.188 143.176V139.4H164.788V157H163.188V155.944C162.462 156.285 161.694 156.552 160.884 156.744C160.094 156.915 159.262 157 158.388 157H156.02V157.032H155.988ZM158.388 155.4C159.262 155.4 160.105 155.293 160.916 155.08C161.726 154.867 162.484 154.557 163.188 154.152V148.2C163.188 147.219 162.996 146.291 162.612 145.416C162.228 144.541 161.705 143.784 161.044 143.144C160.404 142.483 159.646 141.971 158.772 141.608C157.897 141.224 156.969 141.032 155.988 141.032C154.985 141.032 154.046 141.224 153.172 141.608C152.318 141.971 151.561 142.483 150.9 143.144C150.238 143.805 149.716 144.573 149.332 145.448C148.969 146.323 148.788 147.251 148.788 148.232C148.788 149.235 148.969 150.173 149.332 151.048C149.716 151.901 150.238 152.659 150.9 153.32C151.561 153.981 152.318 154.504 153.172 154.888C154.046 155.251 154.985 155.432 155.988 155.432V155.4H158.388ZM167.975 157H166.375V139.4H167.975V147.4H182.375V139.4H183.975V157H182.375V149H167.975V157ZM187.163 157H185.562V139.4H187.163V147.4H201.562V139.4H203.163V157H201.562V149H187.163V157ZM206.35 157H204.75V139.4H206.35V154.6L220.75 139.4H222.35V157H220.75V141.8L206.35 157ZM232.738 157C231.522 157 230.38 156.776 229.314 156.328C228.247 155.859 227.308 155.229 226.498 154.44C225.708 153.629 225.079 152.691 224.61 151.624C224.162 150.557 223.938 149.416 223.938 148.2C223.938 146.984 224.162 145.843 224.61 144.776C225.079 143.709 225.708 142.781 226.498 141.992C227.308 141.181 228.247 140.552 229.314 140.104C230.38 139.635 231.522 139.4 232.738 139.4C233.954 139.4 235.095 139.635 236.162 140.104C237.228 140.552 238.156 141.181 238.946 141.992C239.735 142.781 240.364 143.709 240.833 144.776C241.303 145.843 241.538 146.984 241.538 148.2V149H225.57C225.655 149.896 225.9 150.739 226.306 151.528C226.732 152.296 227.266 152.968 227.906 153.544C228.546 154.12 229.271 154.579 230.082 154.92C230.914 155.24 231.799 155.4 232.738 155.4C233.975 155.4 235.138 155.187 236.226 154.76C237.314 154.333 238.284 153.736 239.138 152.968V154.984C238.242 155.624 237.25 156.125 236.162 156.488C235.095 156.829 233.954 157 232.738 157ZM232.738 141C231.799 141 230.914 141.171 230.082 141.512C229.271 141.832 228.546 142.28 227.906 142.856C227.266 143.432 226.732 144.115 226.306 144.904C225.9 145.672 225.655 146.504 225.57 147.4H239.874C239.767 146.504 239.511 145.672 239.106 144.904C238.7 144.115 238.178 143.432 237.538 142.856C236.898 142.28 236.162 141.832 235.33 141.512C234.519 141.171 233.655 141 232.738 141ZM132.8 179.4H141.408C141.301 178.504 141.035 177.672 140.608 176.904C140.203 176.115 139.68 175.432 139.04 174.856C138.4 174.28 137.664 173.832 136.832 173.512C136.021 173.171 135.157 173 134.24 173C133.237 173 132.299 173.192 131.424 173.576C130.549 173.96 129.781 174.483 129.12 175.144C128.928 174.952 128.736 174.771 128.544 174.6C128.352 174.408 128.171 174.216 128 174.024C128.811 173.213 129.749 172.573 130.816 172.104C131.883 171.635 133.024 171.4 134.24 171.4C135.456 171.4 136.597 171.635 137.664 172.104C138.731 172.552 139.659 173.181 140.448 173.992C141.259 174.781 141.888 175.709 142.336 176.776C142.805 177.843 143.04 178.984 143.04 180.2C143.04 181.416 142.805 182.557 142.336 183.624C141.888 184.691 141.259 185.629 140.448 186.44C139.659 187.229 138.731 187.859 137.664 188.328C136.597 188.776 135.456 189 134.24 189C133.024 189 131.883 188.776 130.816 188.328C129.771 187.88 128.843 187.251 128.032 186.44L129.184 185.32C129.824 185.96 130.581 186.472 131.456 186.856C132.331 187.219 133.259 187.4 134.24 187.4C135.157 187.4 136.021 187.24 136.832 186.92C137.664 186.579 138.4 186.12 139.04 185.544C139.68 184.968 140.203 184.296 140.608 183.528C141.035 182.739 141.301 181.896 141.408 181H132.8V179.4ZM144.625 171.4H162.225V173H154.225V189H152.625V173H144.625V171.4ZM172.613 189.032C171.397 189.032 170.255 188.808 169.189 188.36C168.122 187.891 167.183 187.261 166.373 186.472C165.583 185.661 164.954 184.723 164.485 183.656C164.037 182.589 163.812 181.448 163.812 180.232C163.812 179.016 164.037 177.875 164.485 176.808C164.954 175.741 165.583 174.813 166.373 174.024C167.183 173.213 168.122 172.584 169.189 172.136C170.255 171.667 171.397 171.432 172.613 171.432C174.106 171.432 175.471 171.773 176.709 172.456C177.967 173.139 179.002 174.045 179.812 175.176V171.4H181.413V189H179.812V187.944C179.087 188.285 178.319 188.552 177.509 188.744C176.719 188.915 175.887 189 175.013 189H172.645V189.032H172.613ZM175.013 187.4C175.887 187.4 176.73 187.293 177.541 187.08C178.351 186.867 179.109 186.557 179.812 186.152V180.2C179.812 179.219 179.621 178.291 179.237 177.416C178.853 176.541 178.33 175.784 177.669 175.144C177.029 174.483 176.271 173.971 175.397 173.608C174.522 173.224 173.594 173.032 172.613 173.032C171.61 173.032 170.671 173.224 169.797 173.608C168.943 173.971 168.186 174.483 167.525 175.144C166.863 175.805 166.341 176.573 165.957 177.448C165.594 178.323 165.413 179.251 165.413 180.232C165.413 181.235 165.594 182.173 165.957 183.048C166.341 183.901 166.863 184.659 167.525 185.32C168.186 185.981 168.943 186.504 169.797 186.888C170.671 187.251 171.61 187.432 172.613 187.432V187.4H175.013ZM184.6 189H183V171.4H200.6V189H199V173H184.6V189ZM208.588 189C207.713 189 206.87 188.915 206.06 188.744C205.27 188.552 204.513 188.285 203.788 187.944V189H202.188V171.4H203.788V176.776C204.577 175.645 205.601 174.739 206.86 174.056C208.118 173.373 209.494 173.032 210.988 173.032C212.204 173.032 213.345 173.224 214.412 173.608C215.478 173.971 216.406 174.504 217.196 175.208C218.006 175.891 218.636 176.723 219.083 177.704C219.553 178.685 219.788 179.784 219.788 181C219.788 182.216 219.553 183.325 219.083 184.328C218.636 185.309 218.006 186.152 217.196 186.856C216.406 187.539 215.468 188.072 214.38 188.456C213.313 188.819 212.172 189 210.956 189H208.588ZM210.988 187.432C211.969 187.432 212.897 187.283 213.772 186.984C214.646 186.685 215.414 186.259 216.076 185.704C216.737 185.149 217.249 184.477 217.612 183.688C217.996 182.899 218.188 182.003 218.188 181C218.188 180.019 217.996 179.133 217.612 178.344C217.249 177.555 216.737 176.883 216.076 176.328C215.414 175.773 214.646 175.357 213.772 175.08C212.897 174.781 211.969 174.632 210.988 174.632C209.985 174.632 209.046 174.781 208.172 175.08C207.318 175.357 206.561 175.773 205.9 176.328C205.26 176.861 204.748 177.523 204.364 178.312C203.98 179.101 203.788 179.987 203.788 180.968V186.152C204.492 186.557 205.238 186.867 206.028 187.08C206.838 187.293 207.692 187.4 208.588 187.4L210.988 187.432ZM221.388 171.4H222.988V189H221.388V171.4ZM246.994 189C246.119 189 245.276 188.915 244.466 188.744C243.676 188.552 242.919 188.285 242.194 187.944V193.8H240.594V171.4H242.194V175.176C242.983 174.045 244.007 173.139 245.266 172.456C246.524 171.773 247.9 171.432 249.394 171.432C250.61 171.432 251.751 171.667 252.818 172.136C253.884 172.584 254.812 173.213 255.602 174.024C256.412 174.813 257.042 175.741 257.49 176.808C257.959 177.875 258.194 179.016 258.194 180.232C258.194 181.448 257.959 182.589 257.49 183.656C257.042 184.723 256.412 185.661 255.602 186.472C254.812 187.261 253.884 187.891 252.818 188.36C251.751 188.808 250.61 189.032 249.394 189.032H249.362V189H246.994ZM249.394 187.4V187.432C250.375 187.432 251.303 187.251 252.178 186.888C253.052 186.504 253.82 185.981 254.482 185.32C255.143 184.659 255.655 183.901 256.018 183.048C256.402 182.173 256.594 181.235 256.594 180.232C256.594 179.251 256.402 178.323 256.018 177.448C255.655 176.573 255.143 175.805 254.482 175.144C253.82 174.483 253.052 173.971 252.178 173.608C251.303 173.224 250.375 173.032 249.394 173.032C248.391 173.032 247.452 173.224 246.578 173.608C245.724 173.971 244.967 174.483 244.306 175.144C243.666 175.784 243.154 176.541 242.77 177.416C242.386 178.291 242.194 179.219 242.194 180.2V186.152C242.898 186.557 243.644 186.867 244.434 187.08C245.244 187.293 246.098 187.4 246.994 187.4H249.394ZM268.581 189.032C267.365 189.032 266.224 188.808 265.157 188.36C264.091 187.891 263.152 187.261 262.341 186.472C261.552 185.661 260.923 184.723 260.453 183.656C260.005 182.589 259.781 181.448 259.781 180.232C259.781 179.016 260.005 177.875 260.453 176.808C260.923 175.741 261.552 174.813 262.341 174.024C263.152 173.213 264.091 172.584 265.157 172.136C266.224 171.667 267.365 171.432 268.581 171.432C270.075 171.432 271.44 171.773 272.677 172.456C273.936 173.139 274.971 174.045 275.781 175.176V171.4H277.381V189H275.781V187.944C275.056 188.285 274.288 188.552 273.477 188.744C272.688 188.915 271.856 189 270.981 189H268.613V189.032H268.581ZM270.981 187.4C271.856 187.4 272.699 187.293 273.509 187.08C274.32 186.867 275.077 186.557 275.781 186.152V180.2C275.781 179.219 275.589 178.291 275.205 177.416C274.821 176.541 274.299 175.784 273.637 175.144C272.997 174.483 272.24 173.971 271.365 173.608C270.491 173.224 269.563 173.032 268.581 173.032C267.579 173.032 266.64 173.224 265.765 173.608C264.912 173.971 264.155 174.483 263.493 175.144C262.832 175.805 262.309 176.573 261.925 177.448C261.563 178.323 261.381 179.251 261.381 180.232C261.381 181.235 261.563 182.173 261.925 183.048C262.309 183.901 262.832 184.659 263.493 185.32C264.155 185.981 264.912 186.504 265.765 186.888C266.64 187.251 267.579 187.432 268.581 187.432V187.4H270.981ZM290.169 187.4C290.617 187.4 291.033 187.272 291.417 187.016C291.801 186.76 292.131 186.44 292.409 186.056C292.707 185.672 292.942 185.245 293.113 184.776C293.283 184.307 293.369 183.848 293.369 183.4C293.369 182.952 293.283 182.493 293.113 182.024C292.942 181.555 292.707 181.128 292.409 180.744C292.131 180.36 291.801 180.04 291.417 179.784C291.033 179.528 290.617 179.4 290.169 179.4H283.769V177.8H287.769C287.897 177.8 288.025 177.8 288.153 177.8C288.302 177.8 288.441 177.811 288.569 177.832V177.8C289.443 177.8 290.19 177.619 290.809 177.256C291.449 176.893 291.769 176.275 291.769 175.4C291.769 174.525 291.449 173.907 290.809 173.544C290.19 173.181 289.443 173 288.569 173H283.769C283.321 173 282.905 173.085 282.521 173.256C282.137 173.427 281.795 173.661 281.497 173.96C281.219 174.237 280.995 174.568 280.825 174.952C280.654 175.336 280.569 175.741 280.569 176.168L279.161 174.792C279.459 173.789 280.025 172.979 280.857 172.36C281.71 171.72 282.681 171.4 283.769 171.4H288.569C289.23 171.4 289.849 171.485 290.425 171.656C291.022 171.827 291.534 172.083 291.961 172.424C292.387 172.744 292.729 173.16 292.985 173.672C293.241 174.163 293.369 174.739 293.369 175.4C293.369 176.104 293.23 176.659 292.953 177.064C292.675 177.469 292.302 177.853 291.833 178.216C292.281 178.451 292.697 178.76 293.081 179.144C293.465 179.507 293.795 179.923 294.073 180.392C294.35 180.84 294.563 181.331 294.713 181.864C294.883 182.376 294.969 182.888 294.969 183.4C294.969 184.061 294.841 184.733 294.585 185.416C294.329 186.077 293.987 186.675 293.561 187.208C293.134 187.741 292.622 188.179 292.025 188.52C291.449 188.84 290.83 189 290.169 189H282.169C281.486 189 280.857 188.872 280.281 188.616C279.705 188.36 279.203 188.019 278.777 187.592L279.897 186.472C280.515 187.091 281.273 187.4 282.169 187.4H290.169ZM309.363 171.4C309.363 171.592 309.352 171.763 309.331 171.912C309.331 172.061 309.32 172.211 309.299 172.36C310.024 172.723 310.685 173.181 311.283 173.736C311.88 174.269 312.392 174.877 312.819 175.56C313.245 176.221 313.576 176.957 313.811 177.768C314.045 178.557 314.163 179.379 314.163 180.232C314.163 181.448 313.928 182.589 313.458 183.656C313.011 184.723 312.381 185.661 311.571 186.472C310.781 187.261 309.853 187.891 308.787 188.36C307.72 188.808 306.579 189.032 305.363 189.032H305.331V189H302.963C302.088 189 301.245 188.915 300.435 188.744C299.645 188.552 298.888 188.285 298.163 187.944V189H296.562V171.4C296.562 170.739 296.691 170.12 296.947 169.544C297.203 168.947 297.544 168.435 297.971 168.008C298.397 167.581 298.899 167.24 299.475 166.984C300.072 166.728 300.701 166.6 301.363 166.6H304.562C305.224 166.6 305.843 166.728 306.419 166.984C307.016 167.24 307.528 167.581 307.955 168.008C308.381 168.435 308.723 168.947 308.979 169.544C309.235 170.12 309.363 170.739 309.363 171.4ZM305.363 187.4V187.432C306.344 187.432 307.272 187.251 308.147 186.888C309.021 186.504 309.789 185.981 310.451 185.32C311.112 184.659 311.624 183.901 311.987 183.048C312.371 182.173 312.562 181.235 312.562 180.232C312.562 179.464 312.445 178.739 312.211 178.056C311.997 177.352 311.677 176.712 311.251 176.136C310.845 175.539 310.355 175.016 309.779 174.568C309.224 174.12 308.605 173.768 307.923 173.512C307.731 173.491 307.539 173.427 307.347 173.32C307.027 173.235 306.696 173.171 306.355 173.128C306.035 173.064 305.704 173.032 305.363 173.032C304.36 173.032 303.421 173.224 302.547 173.608C301.693 173.971 300.936 174.483 300.275 175.144C299.635 175.784 299.123 176.541 298.739 177.416C298.355 178.291 298.163 179.219 298.163 180.2V186.152C298.867 186.557 299.613 186.867 300.403 187.08C301.213 187.293 302.067 187.4 302.963 187.4H305.363ZM298.163 175.176C298.952 174.045 299.976 173.139 301.235 172.456C302.493 171.773 303.869 171.432 305.363 171.432C306.173 171.432 306.963 171.549 307.731 171.784C307.752 171.699 307.763 171.571 307.763 171.4C307.763 170.504 307.453 169.747 306.835 169.128C306.216 168.509 305.459 168.2 304.562 168.2H301.363C300.467 168.2 299.709 168.509 299.091 169.128C298.472 169.747 298.163 170.504 298.163 171.4V175.176ZM317.35 189H315.75V171.4H317.35V186.6L331.75 171.4H333.35V189H331.75V173.8L317.35 189ZM334.938 171.4H352.538V173H344.538V189H342.938V173H334.938V171.4ZM355.725 189H354.125V171.4H355.725V186.6L370.125 171.4H371.725V189H370.125V173.8L355.725 189ZM378.593 185.32C377.035 184.872 375.766 184.093 374.785 182.984C373.803 181.875 373.312 180.413 373.312 178.6C373.312 177.384 373.537 176.328 373.985 175.432C374.454 174.515 375.083 173.768 375.873 173.192C376.683 172.595 377.622 172.147 378.689 171.848C379.755 171.549 380.897 171.4 382.113 171.4H389.312L390.913 171.432V189H389.312V184.2C388.907 184.605 388.438 184.915 387.905 185.128C387.393 185.341 386.827 185.501 386.209 185.608C385.611 185.693 384.961 185.747 384.257 185.768C383.574 185.768 382.859 185.768 382.113 185.768C381.494 185.768 380.897 185.736 380.321 185.672L376.993 189H374.913L378.593 185.32ZM382.113 173C381.11 173 380.171 173.107 379.297 173.32C378.443 173.533 377.686 173.864 377.025 174.312C376.363 174.76 375.841 175.347 375.457 176.072C375.094 176.776 374.913 177.619 374.913 178.6C374.913 179.603 375.094 180.456 375.457 181.16C375.841 181.864 376.363 182.44 377.025 182.888C377.686 183.336 378.443 183.667 379.297 183.88C380.171 184.072 381.11 184.168 382.113 184.168C383.094 184.168 384.022 184.147 384.897 184.104C385.771 184.061 386.539 183.912 387.201 183.656C387.862 183.4 388.374 182.995 388.737 182.44C389.121 181.864 389.312 181.043 389.312 179.976V173.192L382.113 173Z" fill="white"/>
<path d="M625.4 152.2C624.525 152.2 623.683 152.115 622.872 151.944C622.083 151.752 621.325 151.485 620.6 151.144V157H619V134.6H627.8C629.016 134.6 630.157 134.835 631.224 135.304C632.291 135.773 633.219 136.413 634.008 137.224C634.819 138.013 635.448 138.941 635.896 140.008C636.365 141.053 636.6 142.184 636.6 143.4C636.6 144.616 636.365 145.757 635.896 146.824C635.448 147.891 634.819 148.829 634.008 149.64C633.219 150.429 632.291 151.059 631.224 151.528C630.157 151.976 629.016 152.2 627.8 152.2H625.4ZM635 143.4C635 142.419 634.808 141.491 634.424 140.616C634.061 139.741 633.549 138.984 632.888 138.344C632.227 137.683 631.459 137.16 630.584 136.776C629.709 136.392 628.781 136.2 627.8 136.2H620.6V149.352C621.304 149.757 622.051 150.067 622.84 150.28C623.651 150.493 624.504 150.6 625.4 150.6H627.8C628.781 150.6 629.709 150.419 630.584 150.056C631.459 149.672 632.227 149.149 632.888 148.488C633.549 147.827 634.061 147.069 634.424 146.216C634.808 145.341 635 144.403 635 143.4ZM646.988 157C645.772 157 644.63 156.776 643.564 156.328C642.497 155.859 641.558 155.229 640.748 154.44C639.958 153.629 639.329 152.691 638.86 151.624C638.412 150.557 638.188 149.416 638.188 148.2C638.188 146.984 638.412 145.843 638.86 144.776C639.329 143.709 639.958 142.781 640.748 141.992C641.558 141.181 642.497 140.552 643.564 140.104C644.63 139.635 645.772 139.4 646.988 139.4C648.204 139.4 649.345 139.635 650.412 140.104C651.478 140.552 652.406 141.181 653.196 141.992C653.985 142.781 654.614 143.709 655.083 144.776C655.553 145.843 655.788 146.984 655.788 148.2V149H639.82C639.905 149.896 640.15 150.739 640.556 151.528C640.982 152.296 641.516 152.968 642.156 153.544C642.796 154.12 643.521 154.579 644.332 154.92C645.164 155.24 646.049 155.4 646.988 155.4C648.225 155.4 649.388 155.187 650.476 154.76C651.564 154.333 652.534 153.736 653.388 152.968V154.984C652.492 155.624 651.5 156.125 650.412 156.488C649.345 156.829 648.204 157 646.988 157ZM646.988 141C646.049 141 645.164 141.171 644.332 141.512C643.521 141.832 642.796 142.28 642.156 142.856C641.516 143.432 640.982 144.115 640.556 144.904C640.15 145.672 639.905 146.504 639.82 147.4H654.124C654.017 146.504 653.761 145.672 653.356 144.904C652.95 144.115 652.428 143.432 651.788 142.856C651.148 142.28 650.412 141.832 649.58 141.512C648.769 141.171 647.905 141 646.988 141ZM658.975 157H657.375V139.4H658.975V147.4H673.375V139.4H674.975V157H673.375V149H658.975V157ZM685.363 157C684.147 157 683.005 156.776 681.939 156.328C680.872 155.859 679.933 155.229 679.123 154.44C678.333 153.629 677.704 152.691 677.235 151.624C676.787 150.557 676.562 149.416 676.562 148.2C676.562 146.984 676.787 145.843 677.235 144.776C677.704 143.709 678.333 142.781 679.123 141.992C679.933 141.181 680.872 140.552 681.939 140.104C683.005 139.635 684.147 139.4 685.363 139.4C686.579 139.4 687.72 139.635 688.787 140.104C689.853 140.552 690.781 141.181 691.571 141.992C692.36 142.781 692.989 143.709 693.458 144.776C693.928 145.843 694.163 146.984 694.163 148.2V149H678.195C678.28 149.896 678.525 150.739 678.931 151.528C679.357 152.296 679.891 152.968 680.531 153.544C681.171 154.12 681.896 154.579 682.707 154.92C683.539 155.24 684.424 155.4 685.363 155.4C686.6 155.4 687.763 155.187 688.851 154.76C689.939 154.333 690.909 153.736 691.763 152.968V154.984C690.867 155.624 689.875 156.125 688.787 156.488C687.72 156.829 686.579 157 685.363 157ZM685.363 141C684.424 141 683.539 141.171 682.707 141.512C681.896 141.832 681.171 142.28 680.531 142.856C679.891 143.432 679.357 144.115 678.931 144.904C678.525 145.672 678.28 146.504 678.195 147.4H692.499C692.392 146.504 692.136 145.672 691.731 144.904C691.325 144.115 690.803 143.432 690.163 142.856C689.523 142.28 688.787 141.832 687.955 141.512C687.144 141.171 686.28 141 685.363 141ZM697.35 148.2C697.35 149.203 697.531 150.141 697.894 151.016C698.278 151.869 698.801 152.627 699.462 153.288C700.123 153.949 700.881 154.472 701.734 154.856C702.609 155.219 703.547 155.4 704.55 155.4C705.531 155.4 706.459 155.219 707.334 154.856C708.209 154.472 708.966 153.96 709.606 153.32L710.758 154.44C709.947 155.251 709.009 155.88 707.942 156.328C706.897 156.776 705.766 157 704.55 157C703.334 157 702.193 156.776 701.126 156.328C700.059 155.859 699.121 155.229 698.31 154.44C697.521 153.629 696.891 152.691 696.422 151.624C695.974 150.557 695.75 149.416 695.75 148.2C695.75 146.984 695.974 145.843 696.422 144.776C696.891 143.709 697.521 142.781 698.31 141.992C699.121 141.181 700.059 140.552 701.126 140.104C702.193 139.635 703.334 139.4 704.55 139.4C705.766 139.4 706.907 139.635 707.974 140.104C709.041 140.573 709.979 141.213 710.79 142.024C710.619 142.216 710.438 142.408 710.246 142.6C710.054 142.771 709.862 142.952 709.67 143.144C709.009 142.483 708.241 141.96 707.366 141.576C706.491 141.192 705.553 141 704.55 141C703.547 141 702.609 141.192 701.734 141.576C700.881 141.939 700.123 142.451 699.462 143.112C698.801 143.773 698.278 144.541 697.894 145.416C697.531 146.291 697.35 147.219 697.35 148.2ZM713.975 148.2C713.975 149.203 714.156 150.141 714.519 151.016C714.903 151.869 715.426 152.627 716.087 153.288C716.748 153.949 717.506 154.472 718.359 154.856C719.234 155.219 720.172 155.4 721.175 155.4C722.156 155.4 723.084 155.219 723.959 154.856C724.834 154.472 725.591 153.96 726.231 153.32L727.383 154.44C726.572 155.251 725.634 155.88 724.567 156.328C723.522 156.776 722.391 157 721.175 157C719.959 157 718.818 156.776 717.751 156.328C716.684 155.859 715.746 155.229 714.935 154.44C714.146 153.629 713.516 152.691 713.047 151.624C712.599 150.557 712.375 149.416 712.375 148.2C712.375 146.984 712.599 145.843 713.047 144.776C713.516 143.709 714.146 142.781 714.935 141.992C715.746 141.181 716.684 140.552 717.751 140.104C718.818 139.635 719.959 139.4 721.175 139.4C722.391 139.4 723.532 139.635 724.599 140.104C725.666 140.573 726.604 141.213 727.415 142.024C727.244 142.216 727.063 142.408 726.871 142.6C726.679 142.771 726.487 142.952 726.295 143.144C725.634 142.483 724.866 141.96 723.991 141.576C723.116 141.192 722.178 141 721.175 141C720.172 141 719.234 141.192 718.359 141.576C717.506 141.939 716.748 142.451 716.087 143.112C715.426 143.773 714.903 144.541 714.519 145.416C714.156 146.291 713.975 147.219 713.975 148.2ZM737.8 157.032C736.584 157.032 735.443 156.808 734.376 156.36C733.309 155.891 732.371 155.261 731.56 154.472C730.771 153.661 730.141 152.723 729.672 151.656C729.224 150.589 729 149.448 729 148.232C729 147.016 729.224 145.875 729.672 144.808C730.141 143.741 730.771 142.813 731.56 142.024C732.371 141.213 733.309 140.584 734.376 140.136C735.443 139.667 736.584 139.432 737.8 139.432C739.293 139.432 740.659 139.773 741.896 140.456C743.155 141.139 744.189 142.045 745 143.176V139.4H746.6V157H745V155.944C744.275 156.285 743.507 156.552 742.696 156.744C741.907 156.915 741.075 157 740.2 157H737.832V157.032H737.8ZM740.2 155.4C741.075 155.4 741.917 155.293 742.728 155.08C743.539 154.867 744.296 154.557 745 154.152V148.2C745 147.219 744.808 146.291 744.424 145.416C744.04 144.541 743.517 143.784 742.856 143.144C742.216 142.483 741.459 141.971 740.584 141.608C739.709 141.224 738.781 141.032 737.8 141.032C736.797 141.032 735.859 141.224 734.984 141.608C734.131 141.971 733.373 142.483 732.712 143.144C732.051 143.805 731.528 144.573 731.144 145.448C730.781 146.323 730.6 147.251 730.6 148.232C730.6 149.235 730.781 150.173 731.144 151.048C731.528 151.901 732.051 152.659 732.712 153.32C733.373 153.981 734.131 154.504 734.984 154.888C735.859 155.251 736.797 155.432 737.8 155.432V155.4H740.2ZM749.788 157H748.188V139.4H749.788V147.4H764.188V139.4H765.788V157H764.188V149H749.788V157ZM768.975 148.2C768.975 149.203 769.156 150.141 769.519 151.016C769.903 151.869 770.426 152.627 771.087 153.288C771.748 153.949 772.506 154.472 773.359 154.856C774.234 155.219 775.172 155.4 776.175 155.4C777.156 155.4 778.084 155.219 778.959 154.856C779.834 154.472 780.591 153.96 781.231 153.32L782.383 154.44C781.572 155.251 780.634 155.88 779.567 156.328C778.522 156.776 777.391 157 776.175 157C774.959 157 773.818 156.776 772.751 156.328C771.684 155.859 770.746 155.229 769.935 154.44C769.146 153.629 768.516 152.691 768.047 151.624C767.599 150.557 767.375 149.416 767.375 148.2C767.375 146.984 767.599 145.843 768.047 144.776C768.516 143.709 769.146 142.781 769.935 141.992C770.746 141.181 771.684 140.552 772.751 140.104C773.818 139.635 774.959 139.4 776.175 139.4C777.391 139.4 778.532 139.635 779.599 140.104C780.666 140.573 781.604 141.213 782.415 142.024C782.244 142.216 782.063 142.408 781.871 142.6C781.679 142.771 781.487 142.952 781.295 143.144C780.634 142.483 779.866 141.96 778.991 141.576C778.116 141.192 777.178 141 776.175 141C775.172 141 774.234 141.192 773.359 141.576C772.506 141.939 771.748 142.451 771.087 143.112C770.426 143.773 769.903 144.541 769.519 145.416C769.156 146.291 768.975 147.219 768.975 148.2ZM633.4 171.4C633.4 172.253 633.197 173.043 632.792 173.768C632.387 174.472 631.853 175.037 631.192 175.464C632.344 176.083 633.261 176.947 633.944 178.056C634.648 179.165 635 180.413 635 181.8C635 182.803 634.808 183.741 634.424 184.616C634.061 185.469 633.549 186.227 632.888 186.888C632.227 187.549 631.459 188.072 630.584 188.456C629.709 188.819 628.781 189 627.8 189H624.6C623.384 189 622.275 188.733 621.272 188.2C620.269 187.667 619.437 186.952 618.776 186.056L619.928 184.936C620.44 185.683 621.101 186.28 621.912 186.728C622.723 187.176 623.619 187.4 624.6 187.4H627.8C628.568 187.4 629.293 187.261 629.976 186.984C630.659 186.685 631.256 186.28 631.768 185.768C632.28 185.256 632.675 184.659 632.952 183.976C633.251 183.293 633.4 182.568 633.4 181.8C633.4 181.032 633.251 180.307 632.952 179.624C632.675 178.941 632.28 178.344 631.768 177.832C631.256 177.32 630.659 176.925 629.976 176.648C629.293 176.349 628.568 176.2 627.8 176.2H623.8V174.6H627.8C627.928 174.6 628.056 174.6 628.184 174.6C628.333 174.6 628.472 174.611 628.6 174.632V174.6C629.496 174.6 630.253 174.291 630.872 173.672C631.491 173.053 631.8 172.296 631.8 171.4C631.8 170.504 631.491 169.747 630.872 169.128C630.253 168.509 629.496 168.2 628.6 168.2H623.8C623.352 168.2 622.936 168.285 622.552 168.456C622.168 168.627 621.827 168.861 621.528 169.16C621.251 169.437 621.027 169.768 620.856 170.152C620.685 170.536 620.6 170.941 620.6 171.368L619.192 169.992C619.491 168.989 620.056 168.179 620.888 167.56C621.741 166.92 622.712 166.6 623.8 166.6H628.6C629.261 166.6 629.88 166.728 630.456 166.984C631.053 167.24 631.565 167.581 631.992 168.008C632.419 168.435 632.76 168.947 633.016 169.544C633.272 170.12 633.4 170.739 633.4 171.4ZM636.594 166.6H642.994C644.53 166.6 645.98 166.899 647.346 167.496C648.711 168.072 649.895 168.872 650.898 169.896C651.922 170.899 652.722 172.083 653.298 173.448C653.895 174.813 654.194 176.264 654.194 177.8C654.194 179.336 653.895 180.787 653.298 182.152C652.722 183.517 651.922 184.712 650.898 185.736C649.895 186.739 648.711 187.539 647.346 188.136C645.98 188.712 644.53 189 642.994 189C642.119 189 641.276 188.915 640.466 188.744C639.676 188.552 638.919 188.285 638.194 187.944V189H636.594V166.6ZM652.594 177.8C652.594 176.477 652.338 175.229 651.826 174.056C651.335 172.883 650.652 171.869 649.778 171.016C648.924 170.141 647.911 169.459 646.738 168.968C645.564 168.456 644.316 168.2 642.994 168.2H638.194V186.152C638.898 186.557 639.644 186.867 640.434 187.08C641.244 187.293 642.098 187.4 642.994 187.4C644.316 187.4 645.564 187.155 646.738 186.664C647.911 186.152 648.924 185.469 649.778 184.616C650.652 183.741 651.335 182.717 651.826 181.544C652.338 180.371 652.594 179.123 652.594 177.8ZM655.781 176.2H670.181V177.8H655.781V176.2ZM673.381 189H671.781V171.4H689.381V173H673.381V189ZM697.369 189C696.494 189 695.651 188.915 694.841 188.744C694.051 188.552 693.294 188.285 692.569 187.944V193.8H690.969V171.4H692.569V175.176C693.358 174.045 694.382 173.139 695.641 172.456C696.899 171.773 698.275 171.432 699.769 171.432C700.985 171.432 702.126 171.667 703.193 172.136C704.259 172.584 705.187 173.213 705.977 174.024C706.787 174.813 707.417 175.741 707.865 176.808C708.334 177.875 708.569 179.016 708.569 180.232C708.569 181.448 708.334 182.589 707.865 183.656C707.417 184.723 706.787 185.661 705.977 186.472C705.187 187.261 704.259 187.891 703.193 188.36C702.126 188.808 700.985 189.032 699.769 189.032H699.737V189H697.369ZM699.769 187.4V187.432C700.75 187.432 701.678 187.251 702.553 186.888C703.427 186.504 704.195 185.981 704.857 185.32C705.518 184.659 706.03 183.901 706.393 183.048C706.777 182.173 706.969 181.235 706.969 180.232C706.969 179.251 706.777 178.323 706.393 177.448C706.03 176.573 705.518 175.805 704.857 175.144C704.195 174.483 703.427 173.971 702.553 173.608C701.678 173.224 700.75 173.032 699.769 173.032C698.766 173.032 697.827 173.224 696.953 173.608C696.099 173.971 695.342 174.483 694.681 175.144C694.041 175.784 693.529 176.541 693.145 177.416C692.761 178.291 692.569 179.219 692.569 180.2V186.152C693.273 186.557 694.019 186.867 694.809 187.08C695.619 187.293 696.473 187.4 697.369 187.4H699.769ZM718.956 189.032C717.74 189.032 716.599 188.808 715.532 188.36C714.466 187.891 713.527 187.261 712.716 186.472C711.927 185.661 711.298 184.723 710.828 183.656C710.38 182.589 710.156 181.448 710.156 180.232C710.156 179.016 710.38 177.875 710.828 176.808C711.298 175.741 711.927 174.813 712.716 174.024C713.527 173.213 714.466 172.584 715.532 172.136C716.599 171.667 717.74 171.432 718.956 171.432C720.45 171.432 721.815 171.773 723.052 172.456C724.311 173.139 725.346 174.045 726.156 175.176V171.4H727.756V189H726.156V187.944C725.431 188.285 724.663 188.552 723.852 188.744C723.063 188.915 722.231 189 721.356 189H718.988V189.032H718.956ZM721.356 187.4C722.231 187.4 723.074 187.293 723.884 187.08C724.695 186.867 725.452 186.557 726.156 186.152V180.2C726.156 179.219 725.964 178.291 725.58 177.416C725.196 176.541 724.674 175.784 724.012 175.144C723.372 174.483 722.615 173.971 721.74 173.608C720.866 173.224 719.938 173.032 718.956 173.032C717.954 173.032 717.015 173.224 716.14 173.608C715.287 173.971 714.53 174.483 713.868 175.144C713.207 175.805 712.684 176.573 712.3 177.448C711.938 178.323 711.756 179.251 711.756 180.232C711.756 181.235 711.938 182.173 712.3 183.048C712.684 183.901 713.207 184.659 713.868 185.32C714.53 185.981 715.287 186.504 716.14 186.888C717.015 187.251 717.954 187.432 718.956 187.432V187.4H721.356ZM729.344 180.2C729.344 178.984 729.568 177.843 730.016 176.776C730.485 175.709 731.114 174.781 731.904 173.992C732.714 173.181 733.653 172.552 734.72 172.104C735.786 171.635 736.928 171.4 738.144 171.4C739.04 171.4 739.893 171.528 740.704 171.784C741.514 172.04 742.261 172.392 742.944 172.84V171.4H744.544V172.84C745.226 172.392 745.973 172.04 746.784 171.784C747.594 171.528 748.448 171.4 749.344 171.4C750.56 171.4 751.701 171.635 752.768 172.104C753.834 172.552 754.762 173.181 755.552 173.992C756.362 174.781 756.992 175.709 757.44 176.776C757.909 177.843 758.144 178.984 758.144 180.2C758.144 181.416 757.909 182.557 757.44 183.624C756.992 184.691 756.362 185.629 755.552 186.44C754.762 187.229 753.834 187.859 752.768 188.328C751.701 188.776 750.56 189 749.344 189C748.469 189 747.626 188.915 746.816 188.744C746.026 188.552 745.269 188.285 744.544 187.944V193.8H742.944V187.944C742.218 188.285 741.45 188.552 740.64 188.744C739.85 188.915 739.018 189 738.144 189C736.928 189 735.786 188.776 734.72 188.328C733.653 187.859 732.714 187.229 731.904 186.44C731.114 185.629 730.485 184.691 730.016 183.624C729.568 182.557 729.344 181.416 729.344 180.2ZM738.144 187.4C739.04 187.4 739.882 187.293 740.672 187.08C741.482 186.867 742.24 186.557 742.944 186.152V174.856C742.304 174.28 741.578 173.832 740.768 173.512C739.957 173.171 739.082 173 738.144 173C737.141 173 736.202 173.192 735.328 173.576C734.474 173.939 733.717 174.451 733.056 175.112C732.394 175.773 731.872 176.541 731.488 177.416C731.125 178.291 730.944 179.219 730.944 180.2C730.944 181.203 731.125 182.141 731.488 183.016C731.872 183.869 732.394 184.627 733.056 185.288C733.717 185.949 734.474 186.472 735.328 186.856C736.202 187.219 737.141 187.4 738.144 187.4ZM749.344 187.4C750.325 187.4 751.253 187.219 752.128 186.856C753.002 186.472 753.77 185.949 754.432 185.288C755.093 184.627 755.605 183.869 755.968 183.016C756.352 182.141 756.544 181.203 756.544 180.2C756.544 179.219 756.352 178.291 755.968 177.416C755.605 176.541 755.093 175.773 754.432 175.112C753.77 174.451 753.002 173.939 752.128 173.576C751.253 173.192 750.325 173 749.344 173C748.405 173 747.53 173.171 746.72 173.512C745.909 173.832 745.184 174.28 744.544 174.856V186.152C745.248 186.557 745.994 186.867 746.784 187.08C747.594 187.293 748.448 187.4 749.344 187.4ZM761.35 189H759.75V171.4H761.35V186.6L775.75 171.4H777.35V189H775.75V173.8L761.35 189ZM778.938 171.4H780.538V179.4H784.73L791.418 171.4H793.338L786.202 179.944L794.938 189H792.89L784.89 181H780.538V189H778.938V171.4ZM798.131 189H796.531V171.4H798.131V186.6L812.531 171.4H814.131V189H812.531V173.8L798.131 189Z" fill="white"/>
<path d="M1109.6 145.8C1109.6 147.123 1109.85 148.371 1110.34 149.544C1110.85 150.717 1111.53 151.741 1112.38 152.616C1113.26 153.469 1114.28 154.152 1115.46 154.664C1116.63 155.155 1117.88 155.4 1119.2 155.4C1120.54 155.4 1121.79 155.155 1122.94 154.664C1124.1 154.173 1125.12 153.48 1126.02 152.584L1127.1 153.704C1126.08 154.728 1124.89 155.539 1123.52 156.136C1122.18 156.712 1120.74 157 1119.2 157C1117.66 157 1116.21 156.712 1114.85 156.136C1113.48 155.539 1112.29 154.739 1111.26 153.736C1110.26 152.712 1109.46 151.517 1108.86 150.152C1108.29 148.787 1108 147.336 1108 145.8C1108 144.264 1108.29 142.813 1108.86 141.448C1109.46 140.083 1110.26 138.899 1111.26 137.896C1112.29 136.872 1113.48 136.072 1114.85 135.496C1116.21 134.899 1117.66 134.6 1119.2 134.6C1120.74 134.6 1122.18 134.899 1123.52 135.496C1124.89 136.072 1126.08 136.872 1127.1 137.896C1126.93 138.067 1126.75 138.248 1126.56 138.44C1126.37 138.632 1126.18 138.824 1125.98 139.016C1125.11 138.141 1124.1 137.459 1122.94 136.968C1121.79 136.456 1120.54 136.2 1119.2 136.2C1117.88 136.2 1116.63 136.456 1115.46 136.968C1114.28 137.459 1113.26 138.141 1112.38 139.016C1111.53 139.869 1110.85 140.883 1110.34 142.056C1109.85 143.229 1109.6 144.477 1109.6 145.8ZM1128.72 148.2C1128.72 146.984 1128.94 145.843 1129.39 144.776C1129.86 143.709 1130.49 142.781 1131.28 141.992C1132.09 141.181 1133.03 140.552 1134.09 140.104C1135.16 139.635 1136.3 139.4 1137.52 139.4C1138.73 139.4 1139.88 139.635 1140.94 140.104C1142.01 140.552 1142.94 141.181 1143.73 141.992C1144.54 142.781 1145.17 143.709 1145.61 144.776C1146.08 145.843 1146.32 146.984 1146.32 148.2C1146.32 149.416 1146.08 150.557 1145.61 151.624C1145.17 152.691 1144.54 153.629 1143.73 154.44C1142.94 155.229 1142.01 155.859 1140.94 156.328C1139.88 156.776 1138.73 157 1137.52 157C1136.3 157 1135.16 156.776 1134.09 156.328C1133.03 155.859 1132.09 155.229 1131.28 154.44C1130.49 153.629 1129.86 152.691 1129.39 151.624C1128.94 150.557 1128.72 149.416 1128.72 148.2ZM1130.32 148.2C1130.32 149.203 1130.5 150.141 1130.86 151.016C1131.25 151.869 1131.77 152.627 1132.43 153.288C1133.09 153.949 1133.85 154.472 1134.7 154.856C1135.58 155.219 1136.52 155.4 1137.52 155.4C1138.5 155.4 1139.43 155.219 1140.3 154.856C1141.18 154.472 1141.95 153.949 1142.61 153.288C1143.27 152.627 1143.78 151.869 1144.14 151.016C1144.53 150.141 1144.72 149.203 1144.72 148.2C1144.72 147.219 1144.53 146.291 1144.14 145.416C1143.78 144.541 1143.27 143.773 1142.61 143.112C1141.95 142.451 1141.18 141.939 1140.3 141.576C1139.43 141.192 1138.5 141 1137.52 141C1136.52 141 1135.58 141.192 1134.7 141.576C1133.85 141.939 1133.09 142.451 1132.43 143.112C1131.77 143.773 1131.25 144.541 1130.86 145.416C1130.5 146.291 1130.32 147.219 1130.32 148.2ZM1160.71 139.4C1160.71 139.592 1160.7 139.763 1160.67 139.912C1160.67 140.061 1160.66 140.211 1160.64 140.36C1161.37 140.723 1162.03 141.181 1162.63 141.736C1163.22 142.269 1163.74 142.877 1164.16 143.56C1164.59 144.221 1164.92 144.957 1165.15 145.768C1165.39 146.557 1165.51 147.379 1165.51 148.232C1165.51 149.448 1165.27 150.589 1164.8 151.656C1164.35 152.723 1163.72 153.661 1162.91 154.472C1162.12 155.261 1161.2 155.891 1160.13 156.36C1159.06 156.808 1157.92 157.032 1156.71 157.032H1156.67V157H1154.31C1153.43 157 1152.59 156.915 1151.78 156.744C1150.99 156.552 1150.23 156.285 1149.51 155.944V157H1147.91V139.4C1147.91 138.739 1148.03 138.12 1148.29 137.544C1148.55 136.947 1148.89 136.435 1149.31 136.008C1149.74 135.581 1150.24 135.24 1150.82 134.984C1151.42 134.728 1152.04 134.6 1152.71 134.6H1155.91C1156.57 134.6 1157.19 134.728 1157.76 134.984C1158.36 135.24 1158.87 135.581 1159.3 136.008C1159.72 136.435 1160.07 136.947 1160.32 137.544C1160.58 138.12 1160.71 138.739 1160.71 139.4ZM1156.71 155.4V155.432C1157.69 155.432 1158.62 155.251 1159.49 154.888C1160.36 154.504 1161.13 153.981 1161.79 153.32C1162.46 152.659 1162.97 151.901 1163.33 151.048C1163.71 150.173 1163.91 149.235 1163.91 148.232C1163.91 147.464 1163.79 146.739 1163.55 146.056C1163.34 145.352 1163.02 144.712 1162.59 144.136C1162.19 143.539 1161.7 143.016 1161.12 142.568C1160.57 142.12 1159.95 141.768 1159.27 141.512C1159.07 141.491 1158.88 141.427 1158.69 141.32C1158.37 141.235 1158.04 141.171 1157.7 141.128C1157.38 141.064 1157.05 141.032 1156.71 141.032C1155.7 141.032 1154.76 141.224 1153.89 141.608C1153.04 141.971 1152.28 142.483 1151.62 143.144C1150.98 143.784 1150.47 144.541 1150.08 145.416C1149.7 146.291 1149.51 147.219 1149.51 148.2V154.152C1150.21 154.557 1150.96 154.867 1151.75 155.08C1152.56 155.293 1153.41 155.4 1154.31 155.4H1156.71ZM1149.51 143.176C1150.3 142.045 1151.32 141.139 1152.58 140.456C1153.84 139.773 1155.21 139.432 1156.71 139.432C1157.52 139.432 1158.31 139.549 1159.07 139.784C1159.1 139.699 1159.11 139.571 1159.11 139.4C1159.11 138.504 1158.8 137.747 1158.18 137.128C1157.56 136.509 1156.8 136.2 1155.91 136.2H1152.71C1151.81 136.2 1151.05 136.509 1150.43 137.128C1149.82 137.747 1149.51 138.504 1149.51 139.4V143.176ZM1173.49 157C1172.62 157 1171.78 156.915 1170.97 156.744C1170.18 156.552 1169.42 156.285 1168.69 155.944V161.8H1167.09V139.4H1168.69V143.176C1169.48 142.045 1170.51 141.139 1171.77 140.456C1173.02 139.773 1174.4 139.432 1175.89 139.432C1177.11 139.432 1178.25 139.667 1179.32 140.136C1180.38 140.584 1181.31 141.213 1182.1 142.024C1182.91 142.813 1183.54 143.741 1183.99 144.808C1184.46 145.875 1184.69 147.016 1184.69 148.232C1184.69 149.448 1184.46 150.589 1183.99 151.656C1183.54 152.723 1182.91 153.661 1182.1 154.472C1181.31 155.261 1180.38 155.891 1179.32 156.36C1178.25 156.808 1177.11 157.032 1175.89 157.032H1175.86V157H1173.49ZM1175.89 155.4V155.432C1176.88 155.432 1177.8 155.251 1178.68 154.888C1179.55 154.504 1180.32 153.981 1180.98 153.32C1181.64 152.659 1182.16 151.901 1182.52 151.048C1182.9 150.173 1183.09 149.235 1183.09 148.232C1183.09 147.251 1182.9 146.323 1182.52 145.448C1182.16 144.573 1181.64 143.805 1180.98 143.144C1180.32 142.483 1179.55 141.971 1178.68 141.608C1177.8 141.224 1176.88 141.032 1175.89 141.032C1174.89 141.032 1173.95 141.224 1173.08 141.608C1172.22 141.971 1171.47 142.483 1170.81 143.144C1170.17 143.784 1169.65 144.541 1169.27 145.416C1168.89 146.291 1168.69 147.219 1168.69 148.2V154.152C1169.4 154.557 1170.14 154.867 1170.93 155.08C1171.74 155.293 1172.6 155.4 1173.49 155.4H1175.89ZM1195.08 157C1193.87 157 1192.72 156.776 1191.66 156.328C1190.59 155.859 1189.65 155.229 1188.84 154.44C1188.05 153.629 1187.42 152.691 1186.95 151.624C1186.51 150.557 1186.28 149.416 1186.28 148.2C1186.28 146.984 1186.51 145.843 1186.95 144.776C1187.42 143.709 1188.05 142.781 1188.84 141.992C1189.65 141.181 1190.59 140.552 1191.66 140.104C1192.72 139.635 1193.87 139.4 1195.08 139.4C1196.3 139.4 1197.44 139.635 1198.51 140.104C1199.57 140.552 1200.5 141.181 1201.29 141.992C1202.08 142.781 1202.71 143.709 1203.18 144.776C1203.65 145.843 1203.88 146.984 1203.88 148.2V149H1187.91C1188 149.896 1188.24 150.739 1188.65 151.528C1189.08 152.296 1189.61 152.968 1190.25 153.544C1190.89 154.12 1191.61 154.579 1192.43 154.92C1193.26 155.24 1194.14 155.4 1195.08 155.4C1196.32 155.4 1197.48 155.187 1198.57 154.76C1199.66 154.333 1200.63 153.736 1201.48 152.968V154.984C1200.59 155.624 1199.59 156.125 1198.51 156.488C1197.44 156.829 1196.3 157 1195.08 157ZM1195.08 141C1194.14 141 1193.26 141.171 1192.43 141.512C1191.61 141.832 1190.89 142.28 1190.25 142.856C1189.61 143.432 1189.08 144.115 1188.65 144.904C1188.24 145.672 1188 146.504 1187.91 147.4H1202.22C1202.11 146.504 1201.85 145.672 1201.45 144.904C1201.04 144.115 1200.52 143.432 1199.88 142.856C1199.24 142.28 1198.51 141.832 1197.67 141.512C1196.86 141.171 1196 141 1195.08 141ZM1224.67 142.216L1215.87 154.184L1207.07 142.216V157H1205.47V139.4H1207.07L1215.87 151.368L1224.67 139.4H1226.27V157H1224.67V142.216ZM1236.68 157C1235.46 157 1234.32 156.776 1233.25 156.328C1232.18 155.859 1231.25 155.229 1230.44 154.44C1229.65 153.629 1229.02 152.691 1228.55 151.624C1228.1 150.557 1227.88 149.416 1227.88 148.2C1227.88 146.984 1228.1 145.843 1228.55 144.776C1229.02 143.709 1229.65 142.781 1230.44 141.992C1231.25 141.181 1232.18 140.552 1233.25 140.104C1234.32 139.635 1235.46 139.4 1236.68 139.4C1237.89 139.4 1239.03 139.635 1240.1 140.104C1241.17 140.552 1242.09 141.181 1242.88 141.992C1243.67 142.781 1244.3 143.709 1244.77 144.776C1245.24 145.843 1245.48 146.984 1245.48 148.2V149H1229.51C1229.59 149.896 1229.84 150.739 1230.24 151.528C1230.67 152.296 1231.2 152.968 1231.84 153.544C1232.48 154.12 1233.21 154.579 1234.02 154.92C1234.85 155.24 1235.74 155.4 1236.68 155.4C1237.91 155.4 1239.08 155.187 1240.16 154.76C1241.25 154.333 1242.22 153.736 1243.08 152.968V154.984C1242.18 155.624 1241.19 156.125 1240.1 156.488C1239.03 156.829 1237.89 157 1236.68 157ZM1236.68 141C1235.74 141 1234.85 141.171 1234.02 141.512C1233.21 141.832 1232.48 142.28 1231.84 142.856C1231.2 143.432 1230.67 144.115 1230.24 144.904C1229.84 145.672 1229.59 146.504 1229.51 147.4H1243.81C1243.7 146.504 1243.45 145.672 1243.04 144.904C1242.64 144.115 1242.12 143.432 1241.48 142.856C1240.84 142.28 1240.1 141.832 1239.27 141.512C1238.46 141.171 1237.59 141 1236.68 141ZM1248.66 157H1247.06V139.4H1248.66V147.4H1263.06V139.4H1264.66V157H1263.06V149H1248.66V157ZM1267.85 157H1266.25V139.4H1267.85V147.4H1282.25V139.4H1283.85V157H1282.25V149H1267.85V157ZM1291.84 157C1290.96 157 1290.12 156.915 1289.31 156.744C1288.52 156.552 1287.76 156.285 1287.04 155.944V157H1285.44V139.4H1287.04V144.776C1287.83 143.645 1288.85 142.739 1290.11 142.056C1291.37 141.373 1292.74 141.032 1294.24 141.032C1295.45 141.032 1296.59 141.224 1297.66 141.608C1298.73 141.971 1299.66 142.504 1300.45 143.208C1301.26 143.891 1301.89 144.723 1302.33 145.704C1302.8 146.685 1303.04 147.784 1303.04 149C1303.04 150.216 1302.8 151.325 1302.33 152.328C1301.89 153.309 1301.26 154.152 1300.45 154.856C1299.66 155.539 1298.72 156.072 1297.63 156.456C1296.56 156.819 1295.42 157 1294.21 157H1291.84ZM1294.24 155.432C1295.22 155.432 1296.15 155.283 1297.02 154.984C1297.9 154.685 1298.66 154.259 1299.33 153.704C1299.99 153.149 1300.5 152.477 1300.86 151.688C1301.25 150.899 1301.44 150.003 1301.44 149C1301.44 148.019 1301.25 147.133 1300.86 146.344C1300.5 145.555 1299.99 144.883 1299.33 144.328C1298.66 143.773 1297.9 143.357 1297.02 143.08C1296.15 142.781 1295.22 142.632 1294.24 142.632C1293.23 142.632 1292.3 142.781 1291.42 143.08C1290.57 143.357 1289.81 143.773 1289.15 144.328C1288.51 144.861 1288 145.523 1287.61 146.312C1287.23 147.101 1287.04 147.987 1287.04 148.968V154.152C1287.74 154.557 1288.49 154.867 1289.28 155.08C1290.09 155.293 1290.94 155.4 1291.84 155.4L1294.24 155.432ZM1304.64 139.4H1306.24V157H1304.64V139.4ZM1316.64 157C1315.43 157 1314.29 156.776 1313.22 156.328C1312.15 155.859 1311.21 155.229 1310.4 154.44C1309.61 153.629 1308.99 152.691 1308.52 151.624C1308.07 150.557 1307.84 149.416 1307.84 148.2C1307.84 146.984 1308.07 145.843 1308.52 144.776C1308.99 143.709 1309.61 142.781 1310.4 141.992C1311.21 141.181 1312.15 140.552 1313.22 140.104C1314.29 139.635 1315.43 139.4 1316.64 139.4C1317.86 139.4 1319 139.635 1320.07 140.104C1321.13 140.552 1322.06 141.181 1322.85 141.992C1323.64 142.781 1324.27 143.709 1324.74 144.776C1325.21 145.843 1325.44 146.984 1325.44 148.2V149H1309.48C1309.56 149.896 1309.81 150.739 1310.21 151.528C1310.64 152.296 1311.17 152.968 1311.81 153.544C1312.45 154.12 1313.18 154.579 1313.99 154.92C1314.82 155.24 1315.71 155.4 1316.64 155.4C1317.88 155.4 1319.04 155.187 1320.13 154.76C1321.22 154.333 1322.19 153.736 1323.04 152.968V154.984C1322.15 155.624 1321.16 156.125 1320.07 156.488C1319 156.829 1317.86 157 1316.64 157ZM1316.64 141C1315.71 141 1314.82 141.171 1313.99 141.512C1313.18 141.832 1312.45 142.28 1311.81 142.856C1311.17 143.432 1310.64 144.115 1310.21 144.904C1309.81 145.672 1309.56 146.504 1309.48 147.4H1323.78C1323.67 146.504 1323.42 145.672 1323.01 144.904C1322.61 144.115 1322.08 143.432 1321.44 142.856C1320.8 142.28 1320.07 141.832 1319.24 141.512C1318.43 141.171 1317.56 141 1316.64 141ZM1122.4 171.4C1122.4 172.253 1122.2 173.043 1121.79 173.768C1121.39 174.472 1120.85 175.037 1120.19 175.464C1121.34 176.083 1122.26 176.947 1122.94 178.056C1123.65 179.165 1124 180.413 1124 181.8C1124 182.803 1123.81 183.741 1123.42 184.616C1123.06 185.469 1122.55 186.227 1121.89 186.888C1121.23 187.549 1120.46 188.072 1119.58 188.456C1118.71 188.819 1117.78 189 1116.8 189H1113.6C1112.38 189 1111.27 188.733 1110.27 188.2C1109.27 187.667 1108.44 186.952 1107.78 186.056L1108.93 184.936C1109.44 185.683 1110.1 186.28 1110.91 186.728C1111.72 187.176 1112.62 187.4 1113.6 187.4H1116.8C1117.57 187.4 1118.29 187.261 1118.98 186.984C1119.66 186.685 1120.26 186.28 1120.77 185.768C1121.28 185.256 1121.67 184.659 1121.95 183.976C1122.25 183.293 1122.4 182.568 1122.4 181.8C1122.4 181.032 1122.25 180.307 1121.95 179.624C1121.67 178.941 1121.28 178.344 1120.77 177.832C1120.26 177.32 1119.66 176.925 1118.98 176.648C1118.29 176.349 1117.57 176.2 1116.8 176.2H1112.8V174.6H1116.8C1116.93 174.6 1117.06 174.6 1117.18 174.6C1117.33 174.6 1117.47 174.611 1117.6 174.632V174.6C1118.5 174.6 1119.25 174.291 1119.87 173.672C1120.49 173.053 1120.8 172.296 1120.8 171.4C1120.8 170.504 1120.49 169.747 1119.87 169.128C1119.25 168.509 1118.5 168.2 1117.6 168.2H1112.8C1112.35 168.2 1111.94 168.285 1111.55 168.456C1111.17 168.627 1110.83 168.861 1110.53 169.16C1110.25 169.437 1110.03 169.768 1109.86 170.152C1109.69 170.536 1109.6 170.941 1109.6 171.368L1108.19 169.992C1108.49 168.989 1109.06 168.179 1109.89 167.56C1110.74 166.92 1111.71 166.6 1112.8 166.6H1117.6C1118.26 166.6 1118.88 166.728 1119.46 166.984C1120.05 167.24 1120.57 167.581 1120.99 168.008C1121.42 168.435 1121.76 168.947 1122.02 169.544C1122.27 170.12 1122.4 170.739 1122.4 171.4ZM1125.59 166.6H1131.99C1133.53 166.6 1134.98 166.899 1136.35 167.496C1137.71 168.072 1138.9 168.872 1139.9 169.896C1140.92 170.899 1141.72 172.083 1142.3 173.448C1142.9 174.813 1143.19 176.264 1143.19 177.8C1143.19 179.336 1142.9 180.787 1142.3 182.152C1141.72 183.517 1140.92 184.712 1139.9 185.736C1138.9 186.739 1137.71 187.539 1136.35 188.136C1134.98 188.712 1133.53 189 1131.99 189C1131.12 189 1130.28 188.915 1129.47 188.744C1128.68 188.552 1127.92 188.285 1127.19 187.944V189H1125.59V166.6ZM1141.59 177.8C1141.59 176.477 1141.34 175.229 1140.83 174.056C1140.34 172.883 1139.65 171.869 1138.78 171.016C1137.92 170.141 1136.91 169.459 1135.74 168.968C1134.56 168.456 1133.32 168.2 1131.99 168.2H1127.19V186.152C1127.9 186.557 1128.64 186.867 1129.43 187.08C1130.24 187.293 1131.1 187.4 1131.99 187.4C1133.32 187.4 1134.56 187.155 1135.74 186.664C1136.91 186.152 1137.92 185.469 1138.78 184.616C1139.65 183.741 1140.34 182.717 1140.83 181.544C1141.34 180.371 1141.59 179.123 1141.59 177.8ZM1144.78 176.2H1159.18V177.8H1144.78V176.2ZM1160.78 171.4H1178.38V173H1170.38V189H1168.78V173H1160.78V171.4ZM1188.77 189C1187.55 189 1186.41 188.776 1185.34 188.328C1184.28 187.859 1183.34 187.229 1182.53 186.44C1181.74 185.629 1181.11 184.691 1180.64 183.624C1180.19 182.557 1179.97 181.416 1179.97 180.2C1179.97 178.984 1180.19 177.843 1180.64 176.776C1181.11 175.709 1181.74 174.781 1182.53 173.992C1183.34 173.181 1184.28 172.552 1185.34 172.104C1186.41 171.635 1187.55 171.4 1188.77 171.4C1189.98 171.4 1191.13 171.635 1192.19 172.104C1193.26 172.552 1194.19 173.181 1194.98 173.992C1195.77 174.781 1196.4 175.709 1196.86 176.776C1197.33 177.843 1197.57 178.984 1197.57 180.2V181H1181.6C1181.69 181.896 1181.93 182.739 1182.34 183.528C1182.76 184.296 1183.3 184.968 1183.94 185.544C1184.58 186.12 1185.3 186.579 1186.11 186.92C1186.94 187.24 1187.83 187.4 1188.77 187.4C1190.01 187.4 1191.17 187.187 1192.26 186.76C1193.34 186.333 1194.32 185.736 1195.17 184.968V186.984C1194.27 187.624 1193.28 188.125 1192.19 188.488C1191.13 188.829 1189.98 189 1188.77 189ZM1188.77 173C1187.83 173 1186.94 173.171 1186.11 173.512C1185.3 173.832 1184.58 174.28 1183.94 174.856C1183.3 175.432 1182.76 176.115 1182.34 176.904C1181.93 177.672 1181.69 178.504 1181.6 179.4H1195.9C1195.8 178.504 1195.54 177.672 1195.14 176.904C1194.73 176.115 1194.21 175.432 1193.57 174.856C1192.93 174.28 1192.19 173.832 1191.36 173.512C1190.55 173.171 1189.69 173 1188.77 173ZM1207.96 179.08L1214.74 171.4H1216.76L1208.95 180.2L1216.76 189H1214.74L1207.96 181.352L1201.17 189H1199.16L1206.93 180.2L1199.16 171.4H1201.17L1207.96 179.08ZM1219.94 189H1218.34V171.4H1219.94V179.4H1234.34V171.4H1235.94V189H1234.34V181H1219.94V189ZM1237.53 180.2C1237.53 178.984 1237.76 177.843 1238.2 176.776C1238.67 175.709 1239.3 174.781 1240.09 173.992C1240.9 173.181 1241.84 172.552 1242.91 172.104C1243.97 171.635 1245.12 171.4 1246.33 171.4C1247.55 171.4 1248.69 171.635 1249.76 172.104C1250.82 172.552 1251.75 173.181 1252.54 173.992C1253.35 174.781 1253.98 175.709 1254.43 176.776C1254.9 177.843 1255.13 178.984 1255.13 180.2C1255.13 181.416 1254.9 182.557 1254.43 183.624C1253.98 184.691 1253.35 185.629 1252.54 186.44C1251.75 187.229 1250.82 187.859 1249.76 188.328C1248.69 188.776 1247.55 189 1246.33 189C1245.12 189 1243.97 188.776 1242.91 188.328C1241.84 187.859 1240.9 187.229 1240.09 186.44C1239.3 185.629 1238.67 184.691 1238.2 183.624C1237.76 182.557 1237.53 181.416 1237.53 180.2ZM1239.13 180.2C1239.13 181.203 1239.31 182.141 1239.68 183.016C1240.06 183.869 1240.58 184.627 1241.24 185.288C1241.9 185.949 1242.66 186.472 1243.52 186.856C1244.39 187.219 1245.33 187.4 1246.33 187.4C1247.31 187.4 1248.24 187.219 1249.12 186.856C1249.99 186.472 1250.76 185.949 1251.42 185.288C1252.08 184.627 1252.59 183.869 1252.96 183.016C1253.34 182.141 1253.53 181.203 1253.53 180.2C1253.53 179.219 1253.34 178.291 1252.96 177.416C1252.59 176.541 1252.08 175.773 1251.42 175.112C1250.76 174.451 1249.99 173.939 1249.12 173.576C1248.24 173.192 1247.31 173 1246.33 173C1245.33 173 1244.39 173.192 1243.52 173.576C1242.66 173.939 1241.9 174.451 1241.24 175.112C1240.58 175.773 1240.06 176.541 1239.68 177.416C1239.31 178.291 1239.13 179.219 1239.13 180.2ZM1277.52 171.4V189H1275.92V173H1267.12C1266.35 173 1265.63 173.149 1264.94 173.448C1264.26 173.725 1263.66 174.12 1263.15 174.632C1262.64 175.144 1262.23 175.741 1261.93 176.424C1261.66 177.107 1261.52 177.832 1261.52 178.6V184.2C1261.52 184.861 1261.39 185.491 1261.13 186.088C1260.88 186.664 1260.54 187.165 1260.11 187.592C1259.68 188.019 1259.17 188.36 1258.57 188.616C1258 188.872 1257.38 189 1256.72 189V187.4C1257.61 187.4 1258.37 187.091 1258.99 186.472C1259.61 185.853 1259.92 185.096 1259.92 184.2V178.6C1259.92 177.619 1260.1 176.691 1260.46 175.816C1260.85 174.941 1261.37 174.173 1262.03 173.512C1262.69 172.851 1263.45 172.339 1264.3 171.976C1265.18 171.592 1266.12 171.4 1267.12 171.4H1277.52ZM1279.12 180.2C1279.12 178.984 1279.35 177.843 1279.8 176.776C1280.27 175.709 1280.9 174.781 1281.69 173.992C1282.5 173.181 1283.43 172.552 1284.5 172.104C1285.57 171.635 1286.71 171.4 1287.93 171.4C1289.14 171.4 1290.28 171.635 1291.35 172.104C1292.42 172.552 1293.34 173.181 1294.13 173.992C1294.94 174.781 1295.57 175.709 1296.02 176.776C1296.49 177.843 1296.73 178.984 1296.73 180.2C1296.73 181.416 1296.49 182.557 1296.02 183.624C1295.57 184.691 1294.94 185.629 1294.13 186.44C1293.34 187.229 1292.42 187.859 1291.35 188.328C1290.28 188.776 1289.14 189 1287.93 189C1286.71 189 1285.57 188.776 1284.5 188.328C1283.43 187.859 1282.5 187.229 1281.69 186.44C1280.9 185.629 1280.27 184.691 1279.8 183.624C1279.35 182.557 1279.12 181.416 1279.12 180.2ZM1280.73 180.2C1280.73 181.203 1280.91 182.141 1281.27 183.016C1281.65 183.869 1282.18 184.627 1282.84 185.288C1283.5 185.949 1284.26 186.472 1285.11 186.856C1285.98 187.219 1286.92 187.4 1287.93 187.4C1288.91 187.4 1289.83 187.219 1290.71 186.856C1291.58 186.472 1292.35 185.949 1293.01 185.288C1293.67 184.627 1294.19 183.869 1294.55 183.016C1294.93 182.141 1295.12 181.203 1295.12 180.2C1295.12 179.219 1294.93 178.291 1294.55 177.416C1294.19 176.541 1293.67 175.773 1293.01 175.112C1292.35 174.451 1291.58 173.939 1290.71 173.576C1289.83 173.192 1288.91 173 1287.93 173C1286.92 173 1285.98 173.192 1285.11 173.576C1284.26 173.939 1283.5 174.451 1282.84 175.112C1282.18 175.773 1281.65 176.541 1281.27 177.416C1280.91 178.291 1280.73 179.219 1280.73 180.2ZM1299.91 189H1298.31V171.4H1315.91V173H1299.91V189ZM1319.1 189H1317.5V171.4H1319.1V186.6L1333.5 171.4H1335.1V189H1333.5V173.8L1319.1 189ZM1338.29 189H1336.69V171.4H1338.29V186.6L1352.69 171.4H1354.29V189H1352.69V173.8L1338.29 189Z" fill="white"/>
<path d="M380.6 24H379V1.6H396.6V24H395V3.2H380.6V24ZM398.188 15.2C398.188 13.984 398.412 12.8427 398.86 11.776C399.329 10.7093 399.958 9.78133 400.748 8.992C401.558 8.18133 402.497 7.552 403.564 7.104C404.63 6.63467 405.772 6.4 406.988 6.4C408.204 6.4 409.345 6.63467 410.412 7.104C411.478 7.552 412.406 8.18133 413.196 8.992C414.006 9.78133 414.636 10.7093 415.083 11.776C415.553 12.8427 415.788 13.984 415.788 15.2C415.788 16.416 415.553 17.5573 415.083 18.624C414.636 19.6907 414.006 20.6293 413.196 21.44C412.406 22.2293 411.478 22.8587 410.412 23.328C409.345 23.776 408.204 24 406.988 24C405.772 24 404.63 23.776 403.564 23.328C402.497 22.8587 401.558 22.2293 400.748 21.44C399.958 20.6293 399.329 19.6907 398.86 18.624C398.412 17.5573 398.188 16.416 398.188 15.2ZM399.788 15.2C399.788 16.2027 399.969 17.1413 400.332 18.016C400.716 18.8693 401.238 19.6267 401.9 20.288C402.561 20.9493 403.318 21.472 404.172 21.856C405.046 22.2187 405.985 22.4 406.988 22.4C407.969 22.4 408.897 22.2187 409.772 21.856C410.646 21.472 411.414 20.9493 412.076 20.288C412.737 19.6267 413.249 18.8693 413.612 18.016C413.996 17.1413 414.188 16.2027 414.188 15.2C414.188 14.2187 413.996 13.2907 413.612 12.416C413.249 11.5413 412.737 10.7733 412.076 10.112C411.414 9.45067 410.646 8.93867 409.772 8.576C408.897 8.192 407.969 8 406.988 8C405.985 8 405.046 8.192 404.172 8.576C403.318 8.93867 402.561 9.45067 401.9 10.112C401.238 10.7733 400.716 11.5413 400.332 12.416C399.969 13.2907 399.788 14.2187 399.788 15.2ZM422.655 20.32C421.098 19.872 419.828 19.0933 418.847 17.984C417.866 16.8747 417.375 15.4133 417.375 13.6C417.375 12.384 417.599 11.328 418.047 10.432C418.516 9.51467 419.146 8.768 419.935 8.192C420.746 7.59467 421.684 7.14667 422.751 6.848C423.818 6.54933 424.959 6.4 426.175 6.4H433.375L434.975 6.432V24H433.375V19.2C432.97 19.6053 432.5 19.9147 431.967 20.128C431.455 20.3413 430.89 20.5013 430.271 20.608C429.674 20.6933 429.023 20.7467 428.319 20.768C427.636 20.768 426.922 20.768 426.175 20.768C425.556 20.768 424.959 20.736 424.383 20.672L421.055 24H418.975L422.655 20.32ZM426.175 8C425.172 8 424.234 8.10667 423.359 8.32C422.506 8.53333 421.748 8.864 421.087 9.312C420.426 9.76 419.903 10.3467 419.519 11.072C419.156 11.776 418.975 12.6187 418.975 13.6C418.975 14.6027 419.156 15.456 419.519 16.16C419.903 16.864 420.426 17.44 421.087 17.888C421.748 18.336 422.506 18.6667 423.359 18.88C424.234 19.072 425.172 19.168 426.175 19.168C427.156 19.168 428.084 19.1467 428.959 19.104C429.834 19.0613 430.602 18.912 431.263 18.656C431.924 18.4 432.436 17.9947 432.799 17.44C433.183 16.864 433.375 16.0427 433.375 14.976V8.192L426.175 8ZM449.363 6.4C449.363 6.592 449.352 6.76267 449.331 6.912C449.331 7.06133 449.32 7.21067 449.299 7.36C450.024 7.72267 450.685 8.18133 451.283 8.736C451.88 9.26933 452.392 9.87733 452.819 10.56C453.245 11.2213 453.576 11.9573 453.811 12.768C454.045 13.5573 454.163 14.3787 454.163 15.232C454.163 16.448 453.928 17.5893 453.458 18.656C453.011 19.7227 452.381 20.6613 451.571 21.472C450.781 22.2613 449.853 22.8907 448.787 23.36C447.72 23.808 446.579 24.032 445.363 24.032H445.331V24H442.963C442.088 24 441.245 23.9147 440.435 23.744C439.645 23.552 438.888 23.2853 438.163 22.944V24H436.562V6.4C436.562 5.73867 436.691 5.12 436.947 4.544C437.203 3.94667 437.544 3.43467 437.971 3.008C438.397 2.58133 438.899 2.24 439.475 1.984C440.072 1.728 440.701 1.6 441.363 1.6H444.562C445.224 1.6 445.843 1.728 446.419 1.984C447.016 2.24 447.528 2.58133 447.955 3.008C448.381 3.43467 448.723 3.94667 448.979 4.544C449.235 5.12 449.363 5.73867 449.363 6.4ZM445.363 22.4V22.432C446.344 22.432 447.272 22.2507 448.147 21.888C449.021 21.504 449.789 20.9813 450.451 20.32C451.112 19.6587 451.624 18.9013 451.987 18.048C452.371 17.1733 452.562 16.2347 452.562 15.232C452.562 14.464 452.445 13.7387 452.211 13.056C451.997 12.352 451.677 11.712 451.251 11.136C450.845 10.5387 450.355 10.016 449.779 9.568C449.224 9.12 448.605 8.768 447.923 8.512C447.731 8.49067 447.539 8.42667 447.347 8.32C447.027 8.23467 446.696 8.17067 446.355 8.128C446.035 8.064 445.704 8.032 445.363 8.032C444.36 8.032 443.421 8.224 442.547 8.608C441.693 8.97067 440.936 9.48267 440.275 10.144C439.635 10.784 439.123 11.5413 438.739 12.416C438.355 13.2907 438.163 14.2187 438.163 15.2V21.152C438.867 21.5573 439.613 21.8667 440.403 22.08C441.213 22.2933 442.067 22.4 442.963 22.4H445.363ZM438.163 10.176C438.952 9.04533 439.976 8.13867 441.235 7.456C442.493 6.77333 443.869 6.432 445.363 6.432C446.173 6.432 446.963 6.54933 447.731 6.784C447.752 6.69866 447.763 6.57067 447.763 6.4C447.763 5.504 447.453 4.74667 446.835 4.128C446.216 3.50933 445.459 3.2 444.562 3.2H441.363C440.467 3.2 439.709 3.50933 439.091 4.128C438.472 4.74667 438.163 5.504 438.163 6.4V10.176ZM476.55 6.4V24H474.95V8H466.15C465.382 8 464.657 8.14933 463.974 8.448C463.291 8.72533 462.694 9.12 462.182 9.632C461.67 10.144 461.265 10.7413 460.966 11.424C460.689 12.1067 460.55 12.832 460.55 13.6V19.2C460.55 19.8613 460.422 20.4907 460.166 21.088C459.91 21.664 459.569 22.1653 459.142 22.592C458.715 23.0187 458.203 23.36 457.606 23.616C457.03 23.872 456.411 24 455.75 24V22.4C456.646 22.4 457.403 22.0907 458.022 21.472C458.641 20.8533 458.95 20.096 458.95 19.2V13.6C458.95 12.6187 459.131 11.6907 459.494 10.816C459.878 9.94133 460.401 9.17333 461.062 8.512C461.723 7.85067 462.481 7.33867 463.334 6.976C464.209 6.592 465.147 6.4 466.15 6.4H476.55ZM486.956 24C485.74 24 484.599 23.776 483.532 23.328C482.466 22.8587 481.527 22.2293 480.716 21.44C479.927 20.6293 479.298 19.6907 478.828 18.624C478.38 17.5573 478.156 16.416 478.156 15.2C478.156 13.984 478.38 12.8427 478.828 11.776C479.298 10.7093 479.927 9.78133 480.716 8.992C481.527 8.18133 482.466 7.552 483.532 7.104C484.599 6.63467 485.74 6.4 486.956 6.4C488.172 6.4 489.314 6.63467 490.38 7.104C491.447 7.552 492.375 8.18133 493.164 8.992C493.954 9.78133 494.583 10.7093 495.052 11.776C495.522 12.8427 495.756 13.984 495.756 15.2V16H479.788C479.874 16.896 480.119 17.7387 480.524 18.528C480.951 19.296 481.484 19.968 482.124 20.544C482.764 21.12 483.49 21.5787 484.3 21.92C485.132 22.24 486.018 22.4 486.956 22.4C488.194 22.4 489.356 22.1867 490.444 21.76C491.532 21.3333 492.503 20.736 493.356 19.968V21.984C492.46 22.624 491.468 23.1253 490.38 23.488C489.314 23.8293 488.172 24 486.956 24ZM486.956 8C486.018 8 485.132 8.17067 484.3 8.512C483.49 8.832 482.764 9.28 482.124 9.856C481.484 10.432 480.951 11.1147 480.524 11.904C480.119 12.672 479.874 13.504 479.788 14.4H494.092C493.986 13.504 493.73 12.672 493.324 11.904C492.919 11.1147 492.396 10.432 491.756 9.856C491.116 9.28 490.38 8.832 489.548 8.512C488.738 8.17067 487.874 8 486.956 8ZM498.944 24H497.344V6.4H498.944V14.4H513.344V6.4H514.944V24H513.344V16H498.944V24ZM518.131 24H516.531V6.4H518.131V21.6L532.531 6.4H534.131V24H532.531V8.8L518.131 24ZM544.519 24C543.303 24 542.161 23.776 541.095 23.328C540.028 22.8587 539.089 22.2293 538.279 21.44C537.489 20.6293 536.86 19.6907 536.391 18.624C535.943 17.5573 535.719 16.416 535.719 15.2C535.719 13.984 535.943 12.8427 536.391 11.776C536.86 10.7093 537.489 9.78133 538.279 8.992C539.089 8.18133 540.028 7.552 541.095 7.104C542.161 6.63467 543.303 6.4 544.519 6.4C545.735 6.4 546.876 6.63467 547.943 7.104C549.009 7.552 549.937 8.18133 550.727 8.992C551.516 9.78133 552.145 10.7093 552.615 11.776C553.084 12.8427 553.319 13.984 553.319 15.2V16H537.351C537.436 16.896 537.681 17.7387 538.087 18.528C538.513 19.296 539.047 19.968 539.687 20.544C540.327 21.12 541.052 21.5787 541.863 21.92C542.695 22.24 543.58 22.4 544.519 22.4C545.756 22.4 546.919 22.1867 548.007 21.76C549.095 21.3333 550.065 20.736 550.919 19.968V21.984C550.023 22.624 549.031 23.1253 547.943 23.488C546.876 23.8293 545.735 24 544.519 24ZM544.519 8C543.58 8 542.695 8.17067 541.863 8.512C541.052 8.832 540.327 9.28 539.687 9.856C539.047 10.432 538.513 11.1147 538.087 11.904C537.681 12.672 537.436 13.504 537.351 14.4H551.655C551.548 13.504 551.292 12.672 550.887 11.904C550.481 11.1147 549.959 10.432 549.319 9.856C548.679 9.28 547.943 8.832 547.111 8.512C546.3 8.17067 545.436 8 544.519 8ZM379 38.4H380.6V46.4H384.792L391.48 38.4H393.4L386.264 46.944L395 56H392.952L384.952 48H380.6V56H379V38.4ZM396.594 47.2C396.594 45.984 396.818 44.8427 397.266 43.776C397.735 42.7093 398.364 41.7813 399.154 40.992C399.964 40.1813 400.903 39.552 401.97 39.104C403.036 38.6347 404.178 38.4 405.394 38.4C406.61 38.4 407.751 38.6347 408.818 39.104C409.884 39.552 410.812 40.1813 411.602 40.992C412.412 41.7813 413.042 42.7093 413.49 43.776C413.959 44.8427 414.194 45.984 414.194 47.2C414.194 48.416 413.959 49.5573 413.49 50.624C413.042 51.6907 412.412 52.6293 411.602 53.44C410.812 54.2293 409.884 54.8587 408.818 55.328C407.751 55.776 406.61 56 405.394 56C404.178 56 403.036 55.776 401.97 55.328C400.903 54.8587 399.964 54.2293 399.154 53.44C398.364 52.6293 397.735 51.6907 397.266 50.624C396.818 49.5573 396.594 48.416 396.594 47.2ZM398.194 47.2C398.194 48.2027 398.375 49.1413 398.738 50.016C399.122 50.8693 399.644 51.6267 400.306 52.288C400.967 52.9493 401.724 53.472 402.578 53.856C403.452 54.2187 404.391 54.4 405.394 54.4C406.375 54.4 407.303 54.2187 408.178 53.856C409.052 53.472 409.82 52.9493 410.482 52.288C411.143 51.6267 411.655 50.8693 412.018 50.016C412.402 49.1413 412.594 48.2027 412.594 47.2C412.594 46.2187 412.402 45.2907 412.018 44.416C411.655 43.5413 411.143 42.7733 410.482 42.112C409.82 41.4507 409.052 40.9387 408.178 40.576C407.303 40.192 406.375 40 405.394 40C404.391 40 403.452 40.192 402.578 40.576C401.724 40.9387 400.967 41.4507 400.306 42.112C399.644 42.7733 399.122 43.5413 398.738 44.416C398.375 45.2907 398.194 46.2187 398.194 47.2ZM434.981 41.216L426.181 53.184L417.381 41.216V56H415.781V38.4H417.381L426.181 50.368L434.981 38.4H436.581V56H434.981V41.216ZM439.788 56H438.188V38.4H455.788V56H454.188V40H439.788V56ZM463.775 56C462.9 56 462.058 55.9147 461.247 55.744C460.458 55.552 459.7 55.2853 458.975 54.944V56H457.375V38.4H458.975V43.776C459.764 42.6453 460.788 41.7387 462.047 41.056C463.306 40.3733 464.682 40.032 466.175 40.032C467.391 40.032 468.532 40.224 469.599 40.608C470.666 40.9707 471.594 41.504 472.383 42.208C473.194 42.8907 473.823 43.7227 474.271 44.704C474.74 45.6853 474.975 46.784 474.975 48C474.975 49.216 474.74 50.3253 474.271 51.328C473.823 52.3093 473.194 53.152 472.383 53.856C471.594 54.5387 470.655 55.072 469.567 55.456C468.5 55.8187 467.359 56 466.143 56H463.775ZM466.175 54.432C467.156 54.432 468.084 54.2827 468.959 53.984C469.834 53.6853 470.602 53.2587 471.263 52.704C471.924 52.1493 472.436 51.4773 472.799 50.688C473.183 49.8987 473.375 49.0027 473.375 48C473.375 47.0187 473.183 46.1333 472.799 45.344C472.436 44.5547 471.924 43.8827 471.263 43.328C470.602 42.7733 469.834 42.3573 468.959 42.08C468.084 41.7813 467.156 41.632 466.175 41.632C465.172 41.632 464.234 41.7813 463.359 42.08C462.506 42.3573 461.748 42.7733 461.087 43.328C460.447 43.8613 459.935 44.5227 459.551 45.312C459.167 46.1013 458.975 46.9867 458.975 47.968V53.152C459.679 53.5573 460.426 53.8667 461.215 54.08C462.026 54.2933 462.879 54.4 463.775 54.4L466.175 54.432ZM476.562 38.4H478.163V45.6H479.891C480.083 44.576 480.435 43.6267 480.947 42.752C481.48 41.8773 482.131 41.12 482.899 40.48C483.667 39.8187 484.531 39.3067 485.491 38.944C486.451 38.5813 487.475 38.4 488.563 38.4C489.779 38.4 490.92 38.6347 491.987 39.104C493.053 39.552 493.981 40.1813 494.771 40.992C495.581 41.7813 496.211 42.7093 496.659 43.776C497.128 44.8427 497.363 45.984 497.363 47.2C497.363 48.416 497.128 49.5573 496.659 50.624C496.211 51.6907 495.581 52.6293 494.771 53.44C493.981 54.2293 493.053 54.8587 491.987 55.328C490.92 55.776 489.779 56 488.563 56C487.347 56 486.205 55.776 485.139 55.328C484.072 54.8587 483.133 54.2293 482.323 53.44C481.533 52.6293 480.904 51.6907 480.435 50.624C479.987 49.5573 479.763 48.416 479.763 47.2H478.163V56H476.562V38.4ZM481.363 47.2C481.363 48.2027 481.544 49.1413 481.907 50.016C482.291 50.8693 482.813 51.6267 483.475 52.288C484.136 52.9493 484.893 53.472 485.747 53.856C486.621 54.2187 487.56 54.4 488.563 54.4C489.544 54.4 490.472 54.2187 491.347 53.856C492.221 53.472 492.989 52.9493 493.651 52.288C494.312 51.6267 494.824 50.8693 495.187 50.016C495.571 49.1413 495.763 48.2027 495.763 47.2C495.763 46.2187 495.571 45.2907 495.187 44.416C494.824 43.5413 494.312 42.7733 493.651 42.112C492.989 41.4507 492.221 40.9387 491.347 40.576C490.472 40.192 489.544 40 488.563 40C487.56 40 486.621 40.192 485.747 40.576C484.893 40.9387 484.136 41.4507 483.475 42.112C482.813 42.7733 482.291 43.5413 481.907 44.416C481.544 45.2907 481.363 46.2187 481.363 47.2ZM498.969 38.4H516.569V40H508.569V56H506.969V40H498.969V38.4ZM526.956 56C525.74 56 524.599 55.776 523.532 55.328C522.466 54.8587 521.527 54.2293 520.716 53.44C519.927 52.6293 519.298 51.6907 518.828 50.624C518.38 49.5573 518.156 48.416 518.156 47.2C518.156 45.984 518.38 44.8427 518.828 43.776C519.298 42.7093 519.927 41.7813 520.716 40.992C521.527 40.1813 522.466 39.552 523.532 39.104C524.599 38.6347 525.74 38.4 526.956 38.4C528.172 38.4 529.314 38.6347 530.38 39.104C531.447 39.552 532.375 40.1813 533.164 40.992C533.954 41.7813 534.583 42.7093 535.052 43.776C535.522 44.8427 535.756 45.984 535.756 47.2V48H519.788C519.874 48.896 520.119 49.7387 520.524 50.528C520.951 51.296 521.484 51.968 522.124 52.544C522.764 53.12 523.49 53.5787 524.3 53.92C525.132 54.24 526.018 54.4 526.956 54.4C528.194 54.4 529.356 54.1867 530.444 53.76C531.532 53.3333 532.503 52.736 533.356 51.968V53.984C532.46 54.624 531.468 55.1253 530.38 55.488C529.314 55.8293 528.172 56 526.956 56ZM526.956 40C526.018 40 525.132 40.1707 524.3 40.512C523.49 40.832 522.764 41.28 522.124 41.856C521.484 42.432 520.951 43.1147 520.524 43.904C520.119 44.672 519.874 45.504 519.788 46.4H534.092C533.986 45.504 533.73 44.672 533.324 43.904C532.919 43.1147 532.396 42.432 531.756 41.856C531.116 41.28 530.38 40.832 529.548 40.512C528.738 40.1707 527.874 40 526.956 40ZM543.744 56C542.869 56 542.026 55.9147 541.216 55.744C540.426 55.552 539.669 55.2853 538.944 54.944V60.8H537.344V38.4H538.944V42.176C539.733 41.0453 540.757 40.1387 542.016 39.456C543.274 38.7733 544.65 38.432 546.144 38.432C547.36 38.432 548.501 38.6667 549.568 39.136C550.634 39.584 551.562 40.2133 552.352 41.024C553.162 41.8133 553.792 42.7413 554.24 43.808C554.709 44.8747 554.944 46.016 554.944 47.232C554.944 48.448 554.709 49.5893 554.24 50.656C553.792 51.7227 553.162 52.6613 552.352 53.472C551.562 54.2613 550.634 54.8907 549.568 55.36C548.501 55.808 547.36 56.032 546.144 56.032H546.112V56H543.744ZM546.144 54.4V54.432C547.125 54.432 548.053 54.2507 548.928 53.888C549.802 53.504 550.57 52.9813 551.232 52.32C551.893 51.6587 552.405 50.9013 552.768 50.048C553.152 49.1733 553.344 48.2347 553.344 47.232C553.344 46.2507 553.152 45.3227 552.768 44.448C552.405 43.5733 551.893 42.8053 551.232 42.144C550.57 41.4827 549.802 40.9707 548.928 40.608C548.053 40.224 547.125 40.032 546.144 40.032C545.141 40.032 544.202 40.224 543.328 40.608C542.474 40.9707 541.717 41.4827 541.056 42.144C540.416 42.784 539.904 43.5413 539.52 44.416C539.136 45.2907 538.944 46.2187 538.944 47.2V53.152C539.648 53.5573 540.394 53.8667 541.184 54.08C541.994 54.2933 542.848 54.4 543.744 54.4H546.144ZM558.131 56H556.531V38.4H558.131V46.4H572.531V38.4H574.131V56H572.531V48H558.131V56ZM575.719 47.2C575.719 45.984 575.943 44.8427 576.391 43.776C576.86 42.7093 577.489 41.7813 578.279 40.992C579.089 40.1813 580.028 39.552 581.095 39.104C582.161 38.6347 583.303 38.4 584.519 38.4C585.735 38.4 586.876 38.6347 587.943 39.104C589.009 39.552 589.937 40.1813 590.727 40.992C591.537 41.7813 592.167 42.7093 592.615 43.776C593.084 44.8427 593.319 45.984 593.319 47.2C593.319 48.416 593.084 49.5573 592.615 50.624C592.167 51.6907 591.537 52.6293 590.727 53.44C589.937 54.2293 589.009 54.8587 587.943 55.328C586.876 55.776 585.735 56 584.519 56C583.303 56 582.161 55.776 581.095 55.328C580.028 54.8587 579.089 54.2293 578.279 53.44C577.489 52.6293 576.86 51.6907 576.391 50.624C575.943 49.5573 575.719 48.416 575.719 47.2ZM577.319 47.2C577.319 48.2027 577.5 49.1413 577.863 50.016C578.247 50.8693 578.769 51.6267 579.431 52.288C580.092 52.9493 580.849 53.472 581.703 53.856C582.577 54.2187 583.516 54.4 584.519 54.4C585.5 54.4 586.428 54.2187 587.303 53.856C588.177 53.472 588.945 52.9493 589.607 52.288C590.268 51.6267 590.78 50.8693 591.143 50.016C591.527 49.1413 591.719 48.2027 591.719 47.2C591.719 46.2187 591.527 45.2907 591.143 44.416C590.78 43.5413 590.268 42.7733 589.607 42.112C588.945 41.4507 588.177 40.9387 587.303 40.576C586.428 40.192 585.5 40 584.519 40C583.516 40 582.577 40.192 581.703 40.576C580.849 40.9387 580.092 41.4507 579.431 42.112C578.769 42.7733 578.247 43.5413 577.863 44.416C577.5 45.2907 577.319 46.2187 577.319 47.2ZM596.506 56H594.906V38.4H596.506V53.6L610.906 38.4H612.506V56H610.906V40.8L596.506 56ZM603.738 38.4C602.65 38.4 601.68 38.0907 600.826 37.472C599.994 36.832 599.429 36.0107 599.13 35.008L600.538 33.6C600.538 34.496 600.848 35.2533 601.466 35.872C602.085 36.4907 602.842 36.8 603.738 36.8C604.634 36.8 605.392 36.4907 606.01 35.872C606.629 35.2533 606.938 34.496 606.938 33.6L608.314 35.008C608.016 36.0107 607.45 36.832 606.618 37.472C605.786 38.0907 604.826 38.4 603.738 38.4ZM631.694 56H630.094V38.4H647.694V40H631.694V56ZM655.681 56C654.807 56 653.964 55.9147 653.153 55.744C652.364 55.552 651.607 55.2853 650.881 54.944V60.8H649.281V38.4H650.881V42.176C651.671 41.0453 652.695 40.1387 653.953 39.456C655.212 38.7733 656.588 38.432 658.081 38.432C659.297 38.432 660.439 38.6667 661.505 39.136C662.572 39.584 663.5 40.2133 664.289 41.024C665.1 41.8133 665.729 42.7413 666.177 43.808C666.647 44.8747 666.881 46.016 666.881 47.232C666.881 48.448 666.647 49.5893 666.177 50.656C665.729 51.7227 665.1 52.6613 664.289 53.472C663.5 54.2613 662.572 54.8907 661.505 55.36C660.439 55.808 659.297 56.032 658.081 56.032H658.049V56H655.681ZM658.081 54.4V54.432C659.063 54.432 659.991 54.2507 660.865 53.888C661.74 53.504 662.508 52.9813 663.169 52.32C663.831 51.6587 664.343 50.9013 664.705 50.048C665.089 49.1733 665.281 48.2347 665.281 47.232C665.281 46.2507 665.089 45.3227 664.705 44.448C664.343 43.5733 663.831 42.8053 663.169 42.144C662.508 41.4827 661.74 40.9707 660.865 40.608C659.991 40.224 659.063 40.032 658.081 40.032C657.079 40.032 656.14 40.224 655.265 40.608C654.412 40.9707 653.655 41.4827 652.993 42.144C652.353 42.784 651.841 43.5413 651.457 44.416C651.073 45.2907 650.881 46.2187 650.881 47.2V53.152C651.585 53.5573 652.332 53.8667 653.121 54.08C653.932 54.2933 654.785 54.4 655.681 54.4H658.081ZM677.269 56.032C676.053 56.032 674.911 55.808 673.845 55.36C672.778 54.8907 671.839 54.2613 671.029 53.472C670.239 52.6613 669.61 51.7227 669.141 50.656C668.693 49.5893 668.469 48.448 668.469 47.232C668.469 46.016 668.693 44.8747 669.141 43.808C669.61 42.7413 670.239 41.8133 671.029 41.024C671.839 40.2133 672.778 39.584 673.845 39.136C674.911 38.6667 676.053 38.432 677.269 38.432C678.762 38.432 680.127 38.7733 681.365 39.456C682.623 40.1387 683.658 41.0453 684.469 42.176V38.4H686.069V56H684.469V54.944C683.743 55.2853 682.975 55.552 682.165 55.744C681.375 55.9147 680.543 56 679.669 56H677.301V56.032H677.269ZM679.669 54.4C680.543 54.4 681.386 54.2933 682.197 54.08C683.007 53.8667 683.765 53.5573 684.469 53.152V47.2C684.469 46.2187 684.277 45.2907 683.893 44.416C683.509 43.5413 682.986 42.784 682.325 42.144C681.685 41.4827 680.927 40.9707 680.053 40.608C679.178 40.224 678.25 40.032 677.269 40.032C676.266 40.032 675.327 40.224 674.453 40.608C673.599 40.9707 672.842 41.4827 672.181 42.144C671.519 42.8053 670.997 43.5733 670.613 44.448C670.25 45.3227 670.069 46.2507 670.069 47.232C670.069 48.2347 670.25 49.1733 670.613 50.048C670.997 50.9013 671.519 51.6587 672.181 52.32C672.842 52.9813 673.599 53.504 674.453 53.888C675.327 54.2507 676.266 54.432 677.269 54.432V54.4H679.669ZM687.656 47.2C687.656 45.984 687.88 44.8427 688.328 43.776C688.798 42.7093 689.427 41.7813 690.216 40.992C691.027 40.1813 691.966 39.552 693.032 39.104C694.099 38.6347 695.24 38.4 696.456 38.4C697.352 38.4 698.206 38.528 699.016 38.784C699.827 39.04 700.574 39.392 701.256 39.84V38.4H702.856V39.84C703.539 39.392 704.286 39.04 705.096 38.784C705.907 38.528 706.76 38.4 707.656 38.4C708.872 38.4 710.014 38.6347 711.08 39.104C712.147 39.552 713.075 40.1813 713.864 40.992C714.675 41.7813 715.304 42.7093 715.752 43.776C716.222 44.8427 716.456 45.984 716.456 47.2C716.456 48.416 716.222 49.5573 715.752 50.624C715.304 51.6907 714.675 52.6293 713.864 53.44C713.075 54.2293 712.147 54.8587 711.08 55.328C710.014 55.776 708.872 56 707.656 56C706.782 56 705.939 55.9147 705.128 55.744C704.339 55.552 703.582 55.2853 702.856 54.944V60.8H701.256V54.944C700.531 55.2853 699.763 55.552 698.952 55.744C698.163 55.9147 697.331 56 696.456 56C695.24 56 694.099 55.776 693.032 55.328C691.966 54.8587 691.027 54.2293 690.216 53.44C689.427 52.6293 688.798 51.6907 688.328 50.624C687.88 49.5573 687.656 48.416 687.656 47.2ZM696.456 54.4C697.352 54.4 698.195 54.2933 698.984 54.08C699.795 53.8667 700.552 53.5573 701.256 53.152V41.856C700.616 41.28 699.891 40.832 699.08 40.512C698.27 40.1707 697.395 40 696.456 40C695.454 40 694.515 40.192 693.64 40.576C692.787 40.9387 692.03 41.4507 691.368 42.112C690.707 42.7733 690.184 43.5413 689.8 44.416C689.438 45.2907 689.256 46.2187 689.256 47.2C689.256 48.2027 689.438 49.1413 689.8 50.016C690.184 50.8693 690.707 51.6267 691.368 52.288C692.03 52.9493 692.787 53.472 693.64 53.856C694.515 54.2187 695.454 54.4 696.456 54.4ZM707.656 54.4C708.638 54.4 709.566 54.2187 710.44 53.856C711.315 53.472 712.083 52.9493 712.744 52.288C713.406 51.6267 713.918 50.8693 714.28 50.016C714.664 49.1413 714.856 48.2027 714.856 47.2C714.856 46.2187 714.664 45.2907 714.28 44.416C713.918 43.5413 713.406 42.7733 712.744 42.112C712.083 41.4507 711.315 40.9387 710.44 40.576C709.566 40.192 708.638 40 707.656 40C706.718 40 705.843 40.1707 705.032 40.512C704.222 40.832 703.496 41.28 702.856 41.856V53.152C703.56 53.5573 704.307 53.8667 705.096 54.08C705.907 54.2933 706.76 54.4 707.656 54.4ZM719.663 56H718.062V38.4H719.663V53.6L734.062 38.4H735.663V56H734.062V40.8L719.663 56ZM737.25 38.4H738.85V46.4H743.042L749.73 38.4H751.65L744.514 46.944L753.25 56H751.202L743.202 48H738.85V56H737.25V38.4ZM756.444 56H754.844V38.4H756.444V53.6L770.844 38.4H772.444V56H770.844V40.8L756.444 56Z" fill="white"/>
<rect y="97" width="1440" height="4" fill="#FFC300"/>
<path d="M57 99C57 106.617 58.5002 114.159 61.415 121.196C64.3298 128.233 68.602 134.626 73.9878 140.012C79.3736 145.398 85.7675 149.67 92.8044 152.585C99.8412 155.5 107.383 157 115 157L115 153.021C107.906 153.021 100.881 151.624 94.327 148.909C87.7728 146.194 81.8176 142.215 76.8013 137.199C71.7849 132.182 67.8058 126.227 65.0909 119.673C62.3761 113.119 60.9788 106.094 60.9788 99L57 99Z" fill="#FFC300"/>
<path d="M548 99C548 106.617 549.5 114.159 552.415 121.196C555.33 128.233 559.602 134.626 564.988 140.012C570.374 145.398 576.767 149.67 583.804 152.585C590.841 155.5 598.383 157 606 157L606 153.021C598.906 153.021 591.881 151.624 585.327 148.909C578.773 146.194 572.818 142.215 567.801 137.199C562.785 132.182 558.806 126.227 556.091 119.673C553.376 113.119 551.979 106.094 551.979 99L548 99Z" fill="#FFC300"/>
<path d="M1037 99C1037 106.617 1038.5 114.159 1041.41 121.196C1044.33 128.233 1048.6 134.626 1053.99 140.012C1059.37 145.398 1065.77 149.67 1072.8 152.585C1079.84 155.5 1087.38 157 1095 157L1095 153.021C1087.91 153.021 1080.88 151.624 1074.33 148.909C1067.77 146.194 1061.82 142.215 1056.8 137.199C1051.78 132.182 1047.81 126.227 1045.09 119.673C1042.38 113.119 1040.98 106.094 1040.98 99L1037 99Z" fill="#FFC300"/>
<path d="M366 39C358.383 39 350.841 40.5002 343.804 43.415C336.767 46.3298 330.374 50.602 324.988 55.9878C319.602 61.3736 315.33 67.7675 312.415 74.8044C309.5 81.8412 308 89.3833 308 97L311.979 97C311.979 89.9058 313.376 82.8811 316.091 76.327C318.806 69.7729 322.785 63.8176 327.801 58.8013C332.818 53.7849 338.773 49.8058 345.327 47.091C351.881 44.3761 358.906 42.9788 366 42.9788L366 39Z" fill="#FFC300"/>
<path d="M861 39C853.383 39 845.841 40.5002 838.804 43.415C831.767 46.3298 825.374 50.602 819.988 55.9878C814.602 61.3736 810.33 67.7675 807.415 74.8044C804.5 81.8412 803 89.3833 803 97L806.979 97C806.979 89.9058 808.376 82.8811 811.091 76.327C813.806 69.7729 817.785 63.8176 822.801 58.8013C827.818 53.7849 833.773 49.8058 840.327 47.091C846.881 44.3761 853.906 42.9788 861 42.9788L861 39Z" fill="#FFC300"/>
<path d="M880.4 12H891.472C891.365 10.7627 891.045 9.61067 890.512 8.544C889.979 7.47733 889.275 6.54933 888.4 5.76C887.547 4.97066 886.565 4.352 885.456 3.904C884.347 3.43467 883.163 3.2 881.904 3.2C880.56 3.2 879.312 3.456 878.16 3.968C877.008 4.45867 875.995 5.14133 875.12 6.016C874.928 5.824 874.736 5.632 874.544 5.44C874.352 5.248 874.171 5.06667 874 4.896C875.024 3.872 876.208 3.072 877.552 2.496C878.917 1.89867 880.368 1.6 881.904 1.6C883.44 1.6 884.891 1.89867 886.256 2.496C887.621 3.072 888.805 3.872 889.808 4.896C890.832 5.89867 891.632 7.08267 892.208 8.448C892.805 9.81333 893.104 11.264 893.104 12.8C893.104 14.336 892.805 15.7867 892.208 17.152C891.632 18.5173 890.832 19.712 889.808 20.736C888.805 21.7387 887.621 22.5387 886.256 23.136C884.891 23.712 883.44 24 881.904 24C880.368 24 878.917 23.712 877.552 23.136C876.208 22.5387 875.024 21.728 874 20.704L875.088 19.584C875.984 20.48 877.008 21.1733 878.16 21.664C879.312 22.1547 880.56 22.4 881.904 22.4C883.163 22.4 884.347 22.176 885.456 21.728C886.565 21.28 887.547 20.6613 888.4 19.872C889.275 19.0827 889.979 18.1547 890.512 17.088C891.045 16 891.365 14.8373 891.472 13.6H880.4V12ZM901.119 24C900.244 24 899.401 23.9147 898.591 23.744C897.801 23.552 897.044 23.2853 896.319 22.944V28.8H894.719V6.4H896.319V10.176C897.108 9.04533 898.132 8.13867 899.391 7.456C900.649 6.77333 902.025 6.432 903.519 6.432C904.735 6.432 905.876 6.66667 906.943 7.136C908.009 7.584 908.937 8.21333 909.727 9.024C910.537 9.81333 911.167 10.7413 911.615 11.808C912.084 12.8747 912.319 14.016 912.319 15.232C912.319 16.448 912.084 17.5893 911.615 18.656C911.167 19.7227 910.537 20.6613 909.727 21.472C908.937 22.2613 908.009 22.8907 906.943 23.36C905.876 23.808 904.735 24.032 903.519 24.032H903.487V24H901.119ZM903.519 22.4V22.432C904.5 22.432 905.428 22.2507 906.303 21.888C907.177 21.504 907.945 20.9813 908.607 20.32C909.268 19.6587 909.78 18.9013 910.143 18.048C910.527 17.1733 910.719 16.2347 910.719 15.232C910.719 14.2507 910.527 13.3227 910.143 12.448C909.78 11.5733 909.268 10.8053 908.607 10.144C907.945 9.48267 907.177 8.97067 906.303 8.608C905.428 8.224 904.5 8.032 903.519 8.032C902.516 8.032 901.577 8.224 900.703 8.608C899.849 8.97067 899.092 9.48267 898.431 10.144C897.791 10.784 897.279 11.5413 896.895 12.416C896.511 13.2907 896.319 14.2187 896.319 15.2V21.152C897.023 21.5573 897.769 21.8667 898.559 22.08C899.369 22.2933 900.223 22.4 901.119 22.4H903.519ZM922.706 24.032C921.49 24.032 920.349 23.808 919.282 23.36C918.216 22.8907 917.277 22.2613 916.466 21.472C915.677 20.6613 915.048 19.7227 914.578 18.656C914.13 17.5893 913.906 16.448 913.906 15.232C913.906 14.016 914.13 12.8747 914.578 11.808C915.048 10.7413 915.677 9.81333 916.466 9.024C917.277 8.21333 918.216 7.584 919.282 7.136C920.349 6.66667 921.49 6.432 922.706 6.432C924.2 6.432 925.565 6.77333 926.802 7.456C928.061 8.13867 929.096 9.04533 929.906 10.176V6.4H931.506V24H929.906V22.944C929.181 23.2853 928.413 23.552 927.602 23.744C926.813 23.9147 925.981 24 925.106 24H922.738V24.032H922.706ZM925.106 22.4C925.981 22.4 926.824 22.2933 927.634 22.08C928.445 21.8667 929.202 21.5573 929.906 21.152V15.2C929.906 14.2187 929.714 13.2907 929.33 12.416C928.946 11.5413 928.424 10.784 927.762 10.144C927.122 9.48267 926.365 8.97067 925.49 8.608C924.616 8.224 923.688 8.032 922.706 8.032C921.704 8.032 920.765 8.224 919.89 8.608C919.037 8.97067 918.28 9.48267 917.618 10.144C916.957 10.8053 916.434 11.5733 916.05 12.448C915.688 13.3227 915.506 14.2507 915.506 15.232C915.506 16.2347 915.688 17.1733 916.05 18.048C916.434 18.9013 916.957 19.6587 917.618 20.32C918.28 20.9813 919.037 21.504 919.89 21.888C920.765 22.2507 921.704 22.432 922.706 22.432V22.4H925.106ZM963.494 6.4C963.494 7.25333 963.291 8.04267 962.886 8.768C962.48 9.472 961.947 10.0373 961.286 10.464C962.438 11.0827 963.355 11.9467 964.038 13.056C964.742 14.1653 965.094 15.4133 965.094 16.8C965.094 17.8027 964.902 18.7413 964.518 19.616C964.155 20.4693 963.643 21.2267 962.982 21.888C962.32 22.5493 961.552 23.072 960.678 23.456C959.803 23.8187 958.875 24 957.894 24H954.694C953.478 24 952.368 23.7333 951.366 23.2C950.363 22.6667 949.531 21.952 948.87 21.056L950.022 19.936C950.534 20.6827 951.195 21.28 952.006 21.728C952.816 22.176 953.712 22.4 954.694 22.4H957.894C958.662 22.4 959.387 22.2613 960.07 21.984C960.752 21.6853 961.35 21.28 961.862 20.768C962.374 20.256 962.768 19.6587 963.046 18.976C963.344 18.2933 963.494 17.568 963.494 16.8C963.494 16.032 963.344 15.3067 963.046 14.624C962.768 13.9413 962.374 13.344 961.862 12.832C961.35 12.32 960.752 11.9253 960.07 11.648C959.387 11.3493 958.662 11.2 957.894 11.2H953.894V9.6H957.894C958.022 9.6 958.15 9.6 958.278 9.6C958.427 9.6 958.566 9.61067 958.694 9.632V9.6C959.59 9.6 960.347 9.29067 960.966 8.672C961.584 8.05333 961.894 7.296 961.894 6.4C961.894 5.504 961.584 4.74667 960.966 4.128C960.347 3.50933 959.59 3.2 958.694 3.2H953.894C953.446 3.2 953.03 3.28533 952.646 3.456C952.262 3.62667 951.92 3.86133 951.622 4.16C951.344 4.43733 951.12 4.768 950.95 5.152C950.779 5.536 950.694 5.94133 950.694 6.368L949.286 4.992C949.584 3.98933 950.15 3.17867 950.982 2.56C951.835 1.92 952.806 1.6 953.894 1.6H958.694C959.355 1.6 959.974 1.728 960.55 1.984C961.147 2.24 961.659 2.58133 962.086 3.008C962.512 3.43467 962.854 3.94667 963.11 4.544C963.366 5.12 963.494 5.73867 963.494 6.4ZM966.688 1.6H973.088C974.624 1.6 976.074 1.89867 977.44 2.496C978.805 3.072 979.989 3.872 980.992 4.896C982.016 5.89867 982.816 7.08267 983.392 8.448C983.989 9.81333 984.288 11.264 984.288 12.8C984.288 14.336 983.989 15.7867 983.392 17.152C982.816 18.5173 982.016 19.712 980.992 20.736C979.989 21.7387 978.805 22.5387 977.44 23.136C976.074 23.712 974.624 24 973.088 24C972.213 24 971.37 23.9147 970.56 23.744C969.77 23.552 969.013 23.2853 968.288 22.944V24H966.688V1.6ZM982.688 12.8C982.688 11.4773 982.432 10.2293 981.92 9.056C981.429 7.88267 980.746 6.86933 979.872 6.016C979.018 5.14133 978.005 4.45867 976.832 3.968C975.658 3.456 974.41 3.2 973.088 3.2H968.288V21.152C968.992 21.5573 969.738 21.8667 970.528 22.08C971.338 22.2933 972.192 22.4 973.088 22.4C974.41 22.4 975.658 22.1547 976.832 21.664C978.005 21.152 979.018 20.4693 979.872 19.616C980.746 18.7413 981.429 17.7173 981.92 16.544C982.432 15.3707 982.688 14.1227 982.688 12.8ZM886.8 38.4C886.8 38.592 886.789 38.7627 886.768 38.912C886.768 39.0613 886.757 39.2107 886.736 39.36C887.461 39.7227 888.123 40.1813 888.72 40.736C889.317 41.2693 889.829 41.8773 890.256 42.56C890.683 43.2213 891.013 43.9573 891.248 44.768C891.483 45.5573 891.6 46.3787 891.6 47.232C891.6 48.448 891.365 49.5893 890.896 50.656C890.448 51.7227 889.819 52.6613 889.008 53.472C888.219 54.2613 887.291 54.8907 886.224 55.36C885.157 55.808 884.016 56.032 882.8 56.032H882.768V56H880.4C879.525 56 878.683 55.9147 877.872 55.744C877.083 55.552 876.325 55.2853 875.6 54.944V56H874V38.4C874 37.7387 874.128 37.12 874.384 36.544C874.64 35.9467 874.981 35.4347 875.408 35.008C875.835 34.5813 876.336 34.24 876.912 33.984C877.509 33.728 878.139 33.6 878.8 33.6H882C882.661 33.6 883.28 33.728 883.856 33.984C884.453 34.24 884.965 34.5813 885.392 35.008C885.819 35.4347 886.16 35.9467 886.416 36.544C886.672 37.12 886.8 37.7387 886.8 38.4ZM882.8 54.4V54.432C883.781 54.432 884.709 54.2507 885.584 53.888C886.459 53.504 887.227 52.9813 887.888 52.32C888.549 51.6587 889.061 50.9013 889.424 50.048C889.808 49.1733 890 48.2347 890 47.232C890 46.464 889.883 45.7387 889.648 45.056C889.435 44.352 889.115 43.712 888.688 43.136C888.283 42.5387 887.792 42.016 887.216 41.568C886.661 41.12 886.043 40.768 885.36 40.512C885.168 40.4907 884.976 40.4267 884.784 40.32C884.464 40.2347 884.133 40.1707 883.792 40.128C883.472 40.064 883.141 40.032 882.8 40.032C881.797 40.032 880.859 40.224 879.984 40.608C879.131 40.9707 878.373 41.4827 877.712 42.144C877.072 42.784 876.56 43.5413 876.176 44.416C875.792 45.2907 875.6 46.2187 875.6 47.2V53.152C876.304 53.5573 877.051 53.8667 877.84 54.08C878.651 54.2933 879.504 54.4 880.4 54.4H882.8ZM875.6 42.176C876.389 41.0453 877.413 40.1387 878.672 39.456C879.931 38.7733 881.307 38.432 882.8 38.432C883.611 38.432 884.4 38.5493 885.168 38.784C885.189 38.6987 885.2 38.5707 885.2 38.4C885.2 37.504 884.891 36.7467 884.272 36.128C883.653 35.5093 882.896 35.2 882 35.2H878.8C877.904 35.2 877.147 35.5093 876.528 36.128C875.909 36.7467 875.6 37.504 875.6 38.4V42.176ZM909.188 38.4H910.788V46.4H914.98L921.668 38.4H923.588L916.452 46.944L925.188 56H923.14L915.14 48H910.788V56H909.188V38.4ZM928.381 56H926.781V38.4H928.381V53.6L942.781 38.4H944.381V56H942.781V40.8L928.381 56ZM947.569 56H945.969V38.4H947.569V46.4H961.969V38.4H963.569V56H961.969V48H947.569V56ZM965.156 47.2C965.156 45.984 965.38 44.8427 965.828 43.776C966.298 42.7093 966.927 41.7813 967.716 40.992C968.527 40.1813 969.466 39.552 970.532 39.104C971.599 38.6347 972.74 38.4 973.956 38.4C975.172 38.4 976.314 38.6347 977.38 39.104C978.447 39.552 979.375 40.1813 980.164 40.992C980.975 41.7813 981.604 42.7093 982.052 43.776C982.522 44.8427 982.756 45.984 982.756 47.2C982.756 48.416 982.522 49.5573 982.052 50.624C981.604 51.6907 980.975 52.6293 980.164 53.44C979.375 54.2293 978.447 54.8587 977.38 55.328C976.314 55.776 975.172 56 973.956 56C972.74 56 971.599 55.776 970.532 55.328C969.466 54.8587 968.527 54.2293 967.716 53.44C966.927 52.6293 966.298 51.6907 965.828 50.624C965.38 49.5573 965.156 48.416 965.156 47.2ZM966.756 47.2C966.756 48.2027 966.938 49.1413 967.3 50.016C967.684 50.8693 968.207 51.6267 968.868 52.288C969.53 52.9493 970.287 53.472 971.14 53.856C972.015 54.2187 972.954 54.4 973.956 54.4C974.938 54.4 975.866 54.2187 976.74 53.856C977.615 53.472 978.383 52.9493 979.044 52.288C979.706 51.6267 980.218 50.8693 980.58 50.016C980.964 49.1413 981.156 48.2027 981.156 47.2C981.156 46.2187 980.964 45.2907 980.58 44.416C980.218 43.5413 979.706 42.7733 979.044 42.112C978.383 41.4507 977.615 40.9387 976.74 40.576C975.866 40.192 974.938 40 973.956 40C972.954 40 972.015 40.192 971.14 40.576C970.287 40.9387 969.53 41.4507 968.868 42.112C968.207 42.7733 967.684 43.5413 967.3 44.416C966.938 45.2907 966.756 46.2187 966.756 47.2ZM1001.94 56H1000.34V38.4H1001.94V53.6L1016.34 38.4H1017.94V56H1016.34V40.8L1001.94 56ZM1037.13 56H1035.53V38.4H1037.13V53.6L1051.53 38.4H1053.13V56H1051.53V40.8L1037.13 56ZM1056.32 56H1054.72V38.4H1072.32V40H1056.32V56ZM1080.31 56C1079.43 56 1078.59 55.9147 1077.78 55.744C1076.99 55.552 1076.23 55.2853 1075.51 54.944V60.8H1073.91V38.4H1075.51V42.176C1076.3 41.0453 1077.32 40.1387 1078.58 39.456C1079.84 38.7733 1081.21 38.432 1082.71 38.432C1083.92 38.432 1085.06 38.6667 1086.13 39.136C1087.2 39.584 1088.12 40.2133 1088.91 41.024C1089.72 41.8133 1090.35 42.7413 1090.8 43.808C1091.27 44.8747 1091.51 46.016 1091.51 47.232C1091.51 48.448 1091.27 49.5893 1090.8 50.656C1090.35 51.7227 1089.72 52.6613 1088.91 53.472C1088.12 54.2613 1087.2 54.8907 1086.13 55.36C1085.06 55.808 1083.92 56.032 1082.71 56.032H1082.67V56H1080.31ZM1082.71 54.4V54.432C1083.69 54.432 1084.62 54.2507 1085.49 53.888C1086.36 53.504 1087.13 52.9813 1087.79 52.32C1088.46 51.6587 1088.97 50.9013 1089.33 50.048C1089.71 49.1733 1089.91 48.2347 1089.91 47.232C1089.91 46.2507 1089.71 45.3227 1089.33 44.448C1088.97 43.5733 1088.46 42.8053 1087.79 42.144C1087.13 41.4827 1086.36 40.9707 1085.49 40.608C1084.62 40.224 1083.69 40.032 1082.71 40.032C1081.7 40.032 1080.76 40.224 1079.89 40.608C1079.04 40.9707 1078.28 41.4827 1077.62 42.144C1076.98 42.784 1076.47 43.5413 1076.08 44.416C1075.7 45.2907 1075.51 46.2187 1075.51 47.2V53.152C1076.21 53.5573 1076.96 53.8667 1077.75 54.08C1078.56 54.2933 1079.41 54.4 1080.31 54.4H1082.71ZM1101.89 56.032C1100.68 56.032 1099.54 55.808 1098.47 55.36C1097.4 54.8907 1096.46 54.2613 1095.65 53.472C1094.86 52.6613 1094.24 51.7227 1093.77 50.656C1093.32 49.5893 1093.09 48.448 1093.09 47.232C1093.09 46.016 1093.32 44.8747 1093.77 43.808C1094.24 42.7413 1094.86 41.8133 1095.65 41.024C1096.46 40.2133 1097.4 39.584 1098.47 39.136C1099.54 38.6667 1100.68 38.432 1101.89 38.432C1103.39 38.432 1104.75 38.7733 1105.99 39.456C1107.25 40.1387 1108.28 41.0453 1109.09 42.176V38.4H1110.69V56H1109.09V54.944C1108.37 55.2853 1107.6 55.552 1106.79 55.744C1106 55.9147 1105.17 56 1104.29 56H1101.93V56.032H1101.89ZM1104.29 54.4C1105.17 54.4 1106.01 54.2933 1106.82 54.08C1107.63 53.8667 1108.39 53.5573 1109.09 53.152V47.2C1109.09 46.2187 1108.9 45.2907 1108.52 44.416C1108.13 43.5413 1107.61 42.784 1106.95 42.144C1106.31 41.4827 1105.55 40.9707 1104.68 40.608C1103.8 40.224 1102.88 40.032 1101.89 40.032C1100.89 40.032 1099.95 40.224 1099.08 40.608C1098.22 40.9707 1097.47 41.4827 1096.81 42.144C1096.14 42.8053 1095.62 43.5733 1095.24 44.448C1094.88 45.3227 1094.69 46.2507 1094.69 47.232C1094.69 48.2347 1094.88 49.1733 1095.24 50.048C1095.62 50.9013 1096.14 51.6587 1096.81 52.32C1097.47 52.9813 1098.22 53.504 1099.08 53.888C1099.95 54.2507 1100.89 54.432 1101.89 54.432V54.4H1104.29ZM1121.08 46.08L1127.87 38.4H1129.88L1122.07 47.2L1129.88 56H1127.87L1121.08 48.352L1114.3 56H1112.28L1120.06 47.2L1112.28 38.4H1114.3L1121.08 46.08Z" fill="white"/>
</svg>
