<svg width="152" height="56" viewBox="0 0 152 56" fill="none" xmlns="http://www.w3.org/2000/svg">
<rect x="0.928711" y="8.38184" width="36.1757" height="36.1757" fill="#E5AF00"/>
<rect x="5.4502" y="12.9038" width="36.1757" height="36.1757" fill="#FFC300"/>
<rect x="9.97168" y="17.4258" width="36.1757" height="36.1757" fill="#FFD60A"/>
<path d="M49.9883 8.46294H88.7235V21.9261H96.4094V29.4339C96.4094 35.3214 93.542 39.9363 87.8072 43.2788C85.7543 44.3986 83.5656 44.9585 81.2411 44.9585H49.9883V40.2757H81.2411C85.2622 40.2757 88.5114 37.9088 90.9885 33.1751C91.4806 31.6311 91.7266 30.3162 91.7266 29.2303V26.6089H59.9139V21.9261H84.0661V13.1458H49.9883V8.46294ZM100.889 8.48839H131.963C138.173 8.48839 142.941 11.8393 146.266 18.5412C146.894 20.5433 147.208 22.0958 147.208 23.1986V29.7138C147.208 35.9067 143.798 40.6744 136.977 44.0168C134.839 44.6446 132.667 44.9585 130.462 44.9585H101.27L100.889 44.7803V8.48839ZM105.724 13.1458V40.3011H130.462C136.553 40.3011 140.523 37.4507 142.372 31.7499C142.491 30.9015 142.551 30.2228 142.551 29.7138V23.3767C142.551 19.3386 140.133 16.115 135.297 13.7057C133.974 13.3324 132.863 13.1458 131.963 13.1458H105.724Z" fill="white"/>
<path d="M49.9883 47.4191H57.8981V48.2162H54.357V53.6041C54.357 53.6477 54.3352 53.6694 54.2916 53.6694H53.5599V48.2162H49.9883V47.4191ZM60.3271 47.4322H65.4755C66.7967 47.4322 67.6925 48.1146 68.1629 49.4793C68.2064 49.6913 68.2282 49.883 68.2282 50.0543V50.5334H61.1286V50.8862C61.1286 51.859 61.6295 52.5094 62.6313 52.8375C62.7765 52.8578 62.8926 52.868 62.9797 52.868H68.2282V53.6694H62.9492C61.9532 53.6694 61.1649 53.1584 60.5841 52.1363C60.4128 51.7559 60.3271 51.3493 60.3271 50.9167V49.7363H67.3963C67.0682 48.7345 66.4177 48.2336 65.445 48.2336H60.3271V47.4322ZM70.666 47.4191H70.8577C72.0017 47.4191 73.0427 47.9186 73.9806 48.9175L74.6514 49.8104C74.8256 49.43 75.2191 48.9523 75.8318 48.3774C76.6593 47.7385 77.5203 47.4191 78.4146 47.4191H78.6063V48.2162H78.5105C77.1196 48.2162 75.9929 49.0031 75.1305 50.5769C75.5603 51.2332 75.9741 51.7428 76.3719 52.1058C77.0891 52.6168 77.8339 52.8724 78.6063 52.8724V53.6694H78.5758C77.1007 53.6694 75.8986 53.0321 74.9694 51.7573C74.7603 51.4379 74.6441 51.2782 74.6209 51.2782H74.5861C73.6453 52.8724 72.3386 53.6694 70.666 53.6694V52.8724C72.0888 52.8724 73.2474 52.0854 74.1418 50.5116C74.1128 50.5116 73.879 50.182 73.4405 49.5229C72.6594 48.6518 71.7564 48.2162 70.7313 48.2162H70.666V47.4191ZM81.0049 47.4191H81.7932V49.6579H88.1437V47.4191H88.9321V53.6694H88.1437V50.4463H81.7932V53.6694H81.0049V47.4191ZM94.2141 47.4191H96.3832C97.6754 47.4191 98.5683 48.0042 99.0619 49.1744C99.1897 49.4416 99.2535 49.8771 99.2535 50.4811V50.7033C99.2535 52.1116 98.6583 53.0466 97.4677 53.5083C97.2267 53.6157 96.9494 53.6694 96.6358 53.6694H93.9266C92.9364 53.6694 92.1611 53.1598 91.6007 52.1406C91.4294 51.7893 91.3437 51.4597 91.3437 51.1519V50.0325C91.3437 48.9639 91.9288 48.1465 93.0991 47.5803C93.4649 47.4728 93.8366 47.4191 94.2141 47.4191ZM92.1408 50.0978V51.0212C92.1408 51.48 92.3209 51.9054 92.6809 52.2974C93.0729 52.6807 93.5099 52.8724 93.992 52.8724H96.6053C97.4184 52.8724 98.0136 52.3947 98.3911 51.4394L98.4216 51.117V50.0325C98.4216 49.3008 97.9962 48.7273 97.1454 48.312C96.8376 48.2481 96.54 48.2162 96.2525 48.2162H94.2446C93.2776 48.2162 92.6185 48.6314 92.2671 49.4619C92.1829 49.6739 92.1408 49.8859 92.1408 50.0978ZM105.838 47.4017L107.354 53.6694H106.565C106.507 53.6694 106.32 52.9333 106.003 51.4611C105.873 51.014 105.608 49.9367 105.211 48.2293H103.826C103.036 51.5395 102.596 53.3529 102.506 53.6694H101.683L103.198 47.4017H105.838ZM112.496 47.4191H114.665C115.957 47.4191 116.85 48.0042 117.344 49.1744C117.472 49.4416 117.536 49.8771 117.536 50.4811V50.7033C117.536 52.1116 116.94 53.0466 115.75 53.5083C115.509 53.6157 115.232 53.6694 114.918 53.6694H112.209C111.219 53.6694 110.443 53.1598 109.883 52.1406C109.712 51.7893 109.626 51.4597 109.626 51.1519V50.0325C109.626 48.9639 110.211 48.1465 111.381 47.5803C111.747 47.4728 112.119 47.4191 112.496 47.4191ZM110.423 50.0978V51.0212C110.423 51.48 110.603 51.9054 110.963 52.2974C111.355 52.6807 111.792 52.8724 112.274 52.8724H114.887C115.701 52.8724 116.296 52.3947 116.673 51.4394L116.704 51.117V50.0325C116.704 49.3008 116.278 48.7273 115.428 48.312C115.12 48.2481 114.822 48.2162 114.535 48.2162H112.527C111.56 48.2162 110.901 48.6314 110.549 49.4619C110.465 49.6739 110.423 49.8859 110.423 50.0978ZM119.965 47.4191H126.15V48.1596H120.771C120.727 48.1683 120.705 48.1901 120.705 48.2249V53.6694H119.965V47.4191ZM128.561 47.4322H129.358V51.0299C129.358 51.8343 129.824 52.4281 130.757 52.8114C131.021 52.852 131.243 52.8724 131.423 52.8724H135.626V47.4322H136.419V53.6694H131.393C130.019 53.6694 129.097 53.0016 128.627 51.6659C128.583 51.4248 128.561 51.255 128.561 51.1562V47.4322ZM138.9 47.4322H139.697V51.0299C139.697 51.8343 140.163 52.4281 141.095 52.8114C141.36 52.852 141.582 52.8724 141.762 52.8724H145.965V47.4322H146.758V53.6694H141.731C140.358 53.6694 139.436 53.0016 138.966 51.6659C138.922 51.4248 138.9 51.255 138.9 51.1562V47.4322Z" fill="white"/>
</svg>
